<svg fill="none" height="448" viewBox="0 0 632 448" width="632" xmlns="http://www.w3.org/2000/svg" xmlns:xlink="http://www.w3.org/1999/xlink"><clipPath id="a"><path d="m0 0h632v448h-632z"/></clipPath><g clip-path="url(#a)"><path d="m0 0h632v448h-632z" fill="#fff"/><path d="m0 0h632v448h-632z" fill="#474b51"/><rect fill="#fff" height="28" rx="14" width="96" x="32" y="32"/><path d="m54.5237 51.0795c-.2453 0-.4557-.0878-.6314-.2634-.1757-.1757-.2635-.3862-.2635-.6314 0-.2453.0878-.4558.2635-.6314.1757-.1757.3861-.2635.6314-.2635s.4557.0878.6314.2635c.1757.1756.2635.3861.2635.6314 0 .1624-.0414.3115-.1243.4474-.0795.1359-.1873.2453-.3232.3281-.1325.0796-.2817.1193-.4474.1193zm4.7305-.0795-2.3267-7.6364h1.2329l1.6506 5.8466h.0795l1.6307-5.8466h1.2529l1.6108 5.8267h.0795l1.6506-5.8267h1.2329l-2.3267 7.6364h-1.1534l-1.6704-5.8665h-.1194l-1.6704 5.8665zm12.5868.1591c-.7358 0-1.3705-.1624-1.9041-.4872-.5303-.3281-.9397-.7855-1.228-1.3722-.285-.5899-.4276-1.276-.4276-2.0582s.1426-1.4716.4276-2.0682c.2883-.5999.6894-1.0672 1.2031-1.402.5171-.3381 1.1203-.5071 1.8097-.5071.3977 0 .7905.0663 1.1782.1989.3878.1325.7408.348 1.059.6463.3182.295.5717.6861.7606 1.1733.189.4872.2834 1.0871.2834 1.7997v.4971h-5.8863v-1.0142h4.6931c0-.4308-.0861-.8153-.2585-1.1534-.169-.338-.411-.6048-.7258-.8004-.3116-.1955-.6795-.2933-1.1037-.2933-.4673 0-.8717.116-1.2131.348-.3381.2287-.5982.527-.7805.8949s-.2735.7623-.2735 1.1832v.6762c0 .5767.0995 1.0655.2983 1.4666.2022.3977.4823.701.8402.9098.358.2055.7739.3082 1.2479.3082.3082 0 .5866-.0431.8352-.1292.2519-.0895.469-.2221.6513-.3978.1823-.179.3232-.401.4226-.6662l1.1335.3182c-.1193.3845-.3198.7226-.6016 1.0142-.2817.2884-.6297.5137-1.044.6762-.4143.159-.88.2386-1.397.2386zm5.1058-.1591v-10.1818h1.1733v3.7585h.0994c.0862-.1326.2055-.3016.358-.5071.1558-.2088.3778-.3944.6662-.5568.2917-.1657.6861-.2486 1.1832-.2486.643 0 1.2098.1608 1.7003.4822.4906.3215.8734.7773 1.1485 1.3672.2751.59.4126 1.286.4126 2.0881 0 .8087-.1375 1.5097-.4126 2.103-.2751.5899-.6563 1.0473-1.1435 1.3721-.4872.3215-1.049.4823-1.6854.4823-.4905 0-.8833-.0812-1.1782-.2436-.295-.1657-.5221-.353-.6812-.5618-.159-.2121-.2817-.3878-.3679-.527h-.1392v1.1733zm1.1534-3.8182c0 .5767.0845 1.0855.2536 1.5263.169.4375.4159.7805.7407 1.0291.3249.2453.7226.3679 1.1932.3679.4906 0 .8999-.1292 1.228-.3878.3315-.2618.58-.6131.7458-1.0539.169-.4442.2535-.938.2535-1.4816 0-.5369-.0829-1.0208-.2486-1.4517-.1624-.4342-.4093-.7772-.7407-1.0291-.3282-.2552-.7408-.3828-1.238-.3828-.4772 0-.8783.121-1.2031.3629-.3248.2386-.5701.5734-.7358 1.0043-.1657.4275-.2486.9263-.2486 1.4964zm10.4851 3.9773c-.7159 0-1.3324-.169-1.8494-.5071-.5171-.3381-.9148-.8038-1.1932-1.397-.2784-.5933-.4176-1.2711-.4176-2.0334 0-.7756.1425-1.46.4275-2.0533.2884-.5966.6894-1.0622 1.2032-1.397.517-.3381 1.1202-.5071 1.8096-.5071.537 0 1.0209.0994 1.4517.2983.4309.1989.7839.4773 1.059.8352.2751.358.4458.7756.5121 1.2529h-1.1733c-.0895-.348-.2884-.6563-.5966-.9247-.305-.2718-.7159-.4077-1.233-.4077-.4574 0-.8584.1193-1.2031.3579-.3414.2354-.6082.5685-.8004.9993-.189.4276-.2834.9297-.2834 1.5064 0 .59.0928 1.1037.2784 1.5412.1889.4375.4541.7772.7954 1.0192.3447.2419.7491.3629 1.2131.3629.3049 0 .5817-.053.8303-.1591.2486-.106.459-.2585.6314-.4574.1723-.1988.2949-.4375.3679-.7159h1.1733c-.0663.4508-.2304.8568-.4922 1.2181-.2586.3579-.6016.643-1.0291.8551-.4243.2088-.9181.3132-1.4816.3132zm5.8914-10.3409v10.1818h-1.1733v-10.1818zm2.1489 10.1818v-7.6364h1.1733v7.6364zm.5966-8.9091c-.2287 0-.4259-.0779-.5916-.2337-.1624-.1557-.2436-.343-.2436-.5617 0-.2188.0812-.4061.2436-.5618.1657-.1558.3629-.2337.5916-.2337s.4243.0779.5867.2337c.1657.1557.2485.343.2485.5618 0 .2187-.0828.406-.2485.5617-.1624.1558-.358.2337-.5867.2337zm2.7257 11.7727v-10.5h1.1331v1.2131h.14c.086-.1326.205-.3016.358-.5071.155-.2088.377-.3944.666-.5568.291-.1657.686-.2486 1.183-.2486.643 0 1.21.1608 1.7.4822.491.3215.874.7773 1.149 1.3672.275.59.412 1.286.412 2.0881 0 .8087-.137 1.5097-.412 2.103-.275.5899-.657 1.0473-1.144 1.3721-.487.3215-1.049.4823-1.685.4823-.491 0-.883-.0812-1.178-.2436-.295-.1657-.522-.353-.681-.5618-.16-.2121-.282-.3878-.368-.527h-.1v4.0369zm1.1531-6.6818c0 .5767.085 1.0855.254 1.5263.169.4375.416.7805.741 1.0291.324.2453.722.3679 1.193.3679.49 0 .9-.1292 1.228-.3878.331-.2618.58-.6131.746-1.0539.169-.4442.253-.938.253-1.4816 0-.5369-.083-1.0208-.249-1.4517-.162-.4342-.409-.7772-.74-1.0291-.328-.2552-.741-.3828-1.238-.3828-.477 0-.879.121-1.203.3629-.325.2386-.57.5734-.736 1.0043-.166.4275-.249.9263-.249 1.4964z" fill="#000"/><path d="m140.678 40.3409-3.281 12.1903h-1.074l3.281-12.1903z" fill="#fff"/><rect fill="#fff" height="28" rx="14" width="96" x="149" y="32"/><path d="m169.206 51.0795c-.245 0-.455-.0878-.631-.2634-.176-.1757-.264-.3862-.264-.6314 0-.2453.088-.4558.264-.6314.176-.1757.386-.2635.631-.2635.246 0 .456.0878.632.2635.175.1756.263.3861.263.6314 0 .1624-.041.3115-.124.4474-.08.1359-.187.2453-.323.3281-.133.0796-.282.1193-.448.1193zm4.174-10.2613v10.1818h-1.173v-10.1818zm5.251 10.3409c-.689 0-1.294-.1641-1.814-.4922-.517-.3281-.922-.7872-1.213-1.3771-.289-.59-.433-1.2794-.433-2.0682 0-.7955.144-1.4898.433-2.0831.291-.5933.696-1.054 1.213-1.3821.52-.3281 1.125-.4922 1.814-.4922.69 0 1.293.1641 1.81.4922.52.3281.925.7888 1.213 1.3821.292.5933.437 1.2876.437 2.0831 0 .7888-.145 1.4782-.437 2.0682-.288.5899-.693 1.049-1.213 1.3771-.517.3281-1.12.4922-1.81.4922zm0-1.054c.524 0 .955-.1342 1.293-.4027s.588-.6214.751-1.0589c.162-.4375.243-.9115.243-1.4219s-.081-.986-.243-1.4269c-.163-.4408-.413-.7971-.751-1.0688-.338-.2718-.769-.4077-1.293-.4077-.523 0-.954.1359-1.292.4077-.338.2717-.589.628-.751 1.0688-.163.4409-.244.9165-.244 1.4269s.081.9844.244 1.4219c.162.4375.413.7904.751 1.0589s.769.4027 1.292.4027zm8.334 3.9176c-.567 0-1.054-.0729-1.462-.2187-.407-.1425-.747-.3315-1.019-.5668-.268-.232-.482-.4806-.641-.7457l.934-.6563c.106.1392.241.2983.403.4773.162.1823.385.3397.666.4723.285.1359.658.2038 1.119.2038.616 0 1.125-.1491 1.526-.4474s.602-.7656.602-1.402v-1.5511h-.1c-.086.1392-.209.3115-.368.517-.155.2022-.381.3828-.676.5419-.291.1558-.686.2337-1.183.2337-.616 0-1.17-.1459-1.661-.4375-.487-.2917-.873-.7159-1.158-1.2727-.282-.5569-.422-1.233-.422-2.0285 0-.7822.137-1.4633.412-2.0433.275-.5833.658-1.0341 1.149-1.3523.49-.3214 1.057-.4822 1.7-.4822.497 0 .891.0829 1.183.2486.295.1624.52.348.676.5568.159.2055.282.3745.368.5071h.119v-1.2131h1.134v7.8552c0 .6562-.149 1.1898-.447 1.6008-.295.4143-.693.7176-1.194.9098-.497.1956-1.05.2933-1.66.2933zm-.04-4.196c.471 0 .868-.1077 1.193-.3231.325-.2155.572-.5254.741-.9297.169-.4044.254-.8883.254-1.4517 0-.5502-.083-1.0358-.249-1.4567s-.411-.7507-.736-.9894c-.325-.2386-.726-.3579-1.203-.3579-.497 0-.911.1259-1.243.3778-.328.2519-.575.59-.741 1.0142-.162.4243-.243.8949-.243 1.412 0 .5303.083.9992.248 1.4069.169.4044.418.7226.746.9546.332.2287.743.343 1.233.343zm8.591 1.3324c-.689 0-1.294-.1641-1.815-.4922-.517-.3281-.921-.7872-1.213-1.3771-.288-.59-.432-1.2794-.432-2.0682 0-.7955.144-1.4898.432-2.0831.292-.5933.696-1.054 1.213-1.3821.521-.3281 1.126-.4922 1.815-.4922s1.293.1641 1.81.4922c.52.3281.924.7888 1.213 1.3821.291.5933.437 1.2876.437 2.0831 0 .7888-.146 1.4782-.437 2.0682-.289.5899-.693 1.049-1.213 1.3771-.517.3281-1.121.4922-1.81.4922zm0-1.054c.524 0 .955-.1342 1.293-.4027s.588-.6214.75-1.0589c.163-.4375.244-.9115.244-1.4219s-.081-.986-.244-1.4269c-.162-.4408-.412-.7971-.75-1.0688-.338-.2718-.769-.4077-1.293-.4077s-.955.1359-1.293.4077c-.338.2717-.588.628-.75 1.0688-.163.4409-.244.9165-.244 1.4269s.081.9844.244 1.4219c.162.4375.412.7904.75 1.0589s.769.4027 1.293.4027zm9.626-4.017v1.0937h-4.454v-1.0937zm5.266 5.071c-.735 0-1.37-.1624-1.904-.4872-.53-.3281-.939-.7855-1.228-1.3722-.285-.5899-.427-1.276-.427-2.0582s.142-1.4716.427-2.0682c.289-.5999.69-1.0672 1.203-1.402.517-.3381 1.121-.5071 1.81-.5071.398 0 .791.0663 1.178.1989.388.1325.741.348 1.059.6463.318.295.572.6861.761 1.1733s.283 1.0871.283 1.7997v.4971h-5.886v-1.0142h4.693c0-.4308-.086-.8153-.258-1.1534-.169-.338-.411-.6048-.726-.8004-.312-.1955-.68-.2933-1.104-.2933-.467 0-.872.116-1.213.348-.338.2287-.598.527-.781.8949-.182.3679-.273.7623-.273 1.1832v.6762c0 .5767.099 1.0655.298 1.4666.202.3977.483.701.841.9098.357.2055.773.3082 1.247.3082.309 0 .587-.0431.836-.1292.252-.0895.469-.2221.651-.3978.182-.179.323-.401.422-.6662l1.134.3182c-.119.3845-.32.7226-.602 1.0142-.281.2884-.629.5137-1.044.6762-.414.159-.88.2386-1.397.2386zm5.617-7.7955 1.83 3.1222 1.829-3.1222h1.352l-2.466 3.8182 2.466 3.8182h-1.352l-1.829-2.9631-1.83 2.9631h-1.352l2.426-3.8182-2.426-3.8182zm10.007 0v.9944h-3.958v-.9944zm-2.804-1.8295h1.173v7.2784c0 .3314.048.58.144.7457.1.1624.225.2718.378.3282.156.053.32.0795.492.0795.129 0 .235-.0066.318-.0199.083-.0165.149-.0298.199-.0398l.239 1.054c-.08.0299-.191.0597-.333.0895-.143.0332-.323.0497-.542.0497-.332 0-.656-.0712-.975-.2137-.314-.1426-.576-.3597-.785-.6513-.206-.2917-.308-.6596-.308-1.1037z" fill="#000"/><path d="m510.546 51v-.8949l3.361-3.679c.394-.4308.719-.8054.974-1.1235.256-.3215.445-.6231.567-.9049.126-.285.189-.5833.189-.8949 0-.3579-.086-.6678-.258-.9296-.169-.2619-.401-.4641-.696-.6066s-.627-.2138-.995-.2138c-.391 0-.732.0812-1.024.2436-.288.1591-.512.3829-.671.6712-.156.2884-.234.6264-.234 1.0142h-1.173c0-.5966.137-1.1202.413-1.571.275-.4508.649-.8021 1.123-1.054.477-.2519 1.013-.3778 1.606-.3778.597 0 1.125.1259 1.586.3778s.822.5916 1.084 1.0192.392.9032.392 1.4268c0 .3746-.067.7408-.203 1.0988-.133.3546-.365.7507-.696 1.1882-.329.4342-.784.9645-1.368 1.5909l-2.286 2.446v.0795h4.732v1.0938zm11.659.1392c-.584 0-1.109-.116-1.576-.348-.468-.232-.842-.5502-1.124-.9546-.282-.4043-.436-.865-.462-1.3821h1.193c.046.4607.255.8419.626 1.1435.375.2983.822.4475 1.343.4475.417 0 .788-.0978 1.113-.2934.328-.1955.585-.464.771-.8054.189-.3447.283-.7341.283-1.1683 0-.4441-.098-.8402-.293-1.1882-.192-.3513-.458-.6281-.796-.8303-.338-.2021-.724-.3049-1.158-.3082-.312-.0033-.631.0447-.96.1442-.328.0961-.598.2204-.81.3729l-1.153-.1393.616-5.0113h5.29v1.0937h-4.256l-.358 3.0029h.06c.209-.1657.471-.3033.785-.4127.315-.1093.643-.164.985-.164.623 0 1.178.1491 1.665.4474.491.295.875.6993 1.154 1.2131.281.5137.422 1.1004.422 1.7599 0 .6496-.145 1.2297-.437 1.7401-.289.5071-.686.9081-1.193 1.2031-.507.2917-1.084.4375-1.73.4375zm8.716 0c-.418-.0066-.835-.0862-1.253-.2386-.417-.1525-.799-.4094-1.143-.7706-.345-.3646-.622-.8568-.831-1.4766-.208-.6231-.313-1.4053-.313-2.3466 0-.9015.085-1.7003.254-2.3963.169-.6993.414-1.2876.736-1.7649.321-.4806.709-.8452 1.163-1.0938.457-.2485.973-.3728 1.546-.3728.57 0 1.077.1143 1.521.343.448.2254.812.5403 1.094.9446.282.4044.464.87.547 1.397h-1.213c-.113-.4574-.331-.8368-.656-1.1385-.325-.3016-.756-.4524-1.293-.4524-.789 0-1.41.3431-1.864 1.0291-.451.6861-.678 1.649-.681 2.8885h.079c.186-.2817.406-.522.661-.7208.259-.2022.544-.358.856-.4674.311-.1093.641-.164.989-.164.583 0 1.117.1458 1.601.4375.484.2883.871.6877 1.163 1.1981.292.5071.438 1.0888.438 1.7451 0 .6297-.141 1.2064-.423 1.7301-.282.5203-.678.9346-1.188 1.2429-.507.3049-1.104.454-1.79.4474zm0-1.0937c.418 0 .792-.1044 1.124-.3133.334-.2088.598-.4888.79-.8402.196-.3513.293-.7424.293-1.1732 0-.421-.094-.8038-.283-1.1485-.186-.348-.442-.6248-.771-.8302-.324-.2055-.696-.3083-1.113-.3083-.315 0-.608.063-.88.1889-.272.1227-.511.2917-.716.5071-.202.2155-.361.4624-.477.7408-.116.2751-.174.5651-.174.87 0 .4044.094.7822.283 1.1336.192.3513.454.6347.785.8501.335.2154.715.3232 1.139.3232zm5.376 3.8181v-10.5h1.133v1.2131h.139c.086-.1326.206-.3016.358-.5071.156-.2088.378-.3944.666-.5568.292-.1657.686-.2486 1.184-.2486.643 0 1.209.1608 1.7.4822.49.3215.873.7773 1.148 1.3672.275.59.413 1.286.413 2.0881 0 .8087-.138 1.5097-.413 2.103-.275.5899-.656 1.0473-1.143 1.3721-.487.3215-1.049.4823-1.685.4823-.491 0-.884-.0812-1.179-.2436-.295-.1657-.522-.353-.681-.5618-.159-.2121-.282-.3878-.368-.527h-.099v4.0369zm1.153-6.6818c0 .5767.084 1.0855.253 1.5263.17.4375.416.7805.741 1.0291.325.2453.723.3679 1.193.3679.491 0 .9-.1292 1.228-.3878.332-.2618.58-.6131.746-1.0539.169-.4442.254-.938.254-1.4816 0-.5369-.083-1.0208-.249-1.4517-.162-.4342-.409-.7772-.741-1.0291-.328-.2552-.74-.3828-1.238-.3828-.477 0-.878.121-1.203.3629-.325.2386-.57.5734-.735 1.0043-.166.4275-.249.9263-.249 1.4964zm7.938-3.8182 1.83 3.1222 1.829-3.1222h1.353l-2.466 3.8182 2.466 3.8182h-1.353l-1.829-2.9631-1.83 2.9631h-1.352l2.426-3.8182-2.426-3.8182zm8.635 3.1819.079-2.1875-1.849 1.1732-.477-.8352 1.948-1.0142-1.948-1.0142.477-.8352 1.849 1.1733-.079-2.1875h.954l-.079 2.1875 1.849-1.1733.477.8352-1.948 1.0142 1.948 1.0142-.477.8352-1.849-1.1732.079 2.1875zm5.031 4.4545v-.8949l3.361-3.679c.394-.4308.719-.8054.974-1.1235.255-.3215.444-.6231.567-.9049.126-.285.189-.5833.189-.8949 0-.3579-.086-.6678-.259-.9296-.169-.2619-.401-.4641-.696-.6066s-.626-.2138-.994-.2138c-.391 0-.732.0812-1.024.2436-.288.1591-.512.3829-.671.6712-.156.2884-.234.6264-.234 1.0142h-1.173c0-.5966.137-1.1202.412-1.571s.65-.8021 1.124-1.054c.477-.2519 1.013-.3778 1.606-.3778.596 0 1.125.1259 1.586.3778.46.2519.822.5916 1.084 1.0192.261.4276.392.9032.392 1.4268 0 .3746-.068.7408-.204 1.0988-.132.3546-.364.7507-.696 1.1882-.328.4342-.783.9645-1.367 1.5909l-2.287 2.446v.0795h4.733v1.0938zm11.658.1392c-.583 0-1.108-.116-1.576-.348-.467-.232-.841-.5502-1.123-.9546-.282-.4043-.436-.865-.463-1.3821h1.194c.046.4607.255.8419.626 1.1435.375.2983.822.4475 1.342.4475.418 0 .789-.0978 1.114-.2934.328-.1955.585-.464.771-.8054.189-.3447.283-.7341.283-1.1683 0-.4441-.098-.8402-.293-1.1882-.193-.3513-.458-.6281-.796-.8303-.338-.2021-.724-.3049-1.158-.3082-.312-.0033-.632.0447-.96.1442-.328.0961-.598.2204-.81.3729l-1.153-.1393.616-5.0113h5.29v1.0937h-4.256l-.358 3.0029h.06c.209-.1657.47-.3033.785-.4127.315-.1093.643-.164.985-.164.623 0 1.178.1491 1.665.4474.491.295.875.6993 1.154 1.2131.281.5137.422 1.1004.422 1.7599 0 .6496-.146 1.2297-.437 1.7401-.289.5071-.686.9081-1.194 1.2031-.507.2917-1.083.4375-1.73.4375zm8.717 0c-.418-.0066-.835-.0862-1.253-.2386-.418-.1525-.799-.4094-1.144-.7706-.344-.3646-.621-.8568-.83-1.4766-.209-.6231-.313-1.4053-.313-2.3466 0-.9015.085-1.7003.254-2.3963.169-.6993.414-1.2876.735-1.7649.322-.4806.71-.8452 1.164-1.0938.457-.2485.973-.3728 1.546-.3728.57 0 1.077.1143 1.521.343.448.2254.812.5403 1.094.9446.282.4044.464.87.547 1.397h-1.213c-.113-.4574-.332-.8368-.656-1.1385-.325-.3016-.756-.4524-1.293-.4524-.789 0-1.41.3431-1.864 1.0291-.451.6861-.678 1.649-.682 2.8885h.08c.186-.2817.406-.522.661-.7208.259-.2022.544-.358.855-.4674.312-.1093.642-.164.99-.164.583 0 1.117.1458 1.601.4375.483.2883.871.6877 1.163 1.1981.292.5071.437 1.0888.437 1.7451 0 .6297-.14 1.2064-.422 1.7301-.282.5203-.678.9346-1.188 1.2429-.508.3049-1.104.454-1.79.4474zm0-1.0937c.417 0 .792-.1044 1.123-.3133.335-.2088.599-.4888.791-.8402.195-.3513.293-.7424.293-1.1732 0-.421-.094-.8038-.283-1.1485-.186-.348-.443-.6248-.771-.8302-.325-.2055-.696-.3083-1.113-.3083-.315 0-.609.063-.88.1889-.272.1227-.511.2917-.716.5071-.202.2155-.362.4624-.478.7408-.116.2751-.174.5651-.174.87 0 .4044.095.7822.284 1.1336.192.3513.454.6347.785.8501.335.2154.715.3232 1.139.3232zm5.375 3.8181v-10.5h1.134v1.2131h.139c.086-.1326.206-.3016.358-.5071.156-.2088.378-.3944.666-.5568.292-.1657.686-.2486 1.183-.2486.643 0 1.21.1608 1.701.4822.49.3215.873.7773 1.148 1.3672.275.59.413 1.286.413 2.0881 0 .8087-.138 1.5097-.413 2.103-.275.5899-.656 1.0473-1.143 1.3721-.488.3215-1.049.4823-1.686.4823-.49 0-.883-.0812-1.178-.2436-.295-.1657-.522-.353-.681-.5618-.159-.2121-.282-.3878-.368-.527h-.099v4.0369zm1.154-6.6818c0 .5767.084 1.0855.253 1.5263.169.4375.416.7805.741 1.0291.325.2453.723.3679 1.193.3679.491 0 .9-.1292 1.228-.3878.332-.2618.58-.6131.746-1.0539.169-.4442.254-.938.254-1.4816 0-.5369-.083-1.0208-.249-1.4517-.162-.4342-.409-.7772-.741-1.0291-.328-.2552-.741-.3828-1.238-.3828-.477 0-.878.121-1.203.3629-.325.2386-.57.5734-.736 1.0043-.165.4275-.248.9263-.248 1.4964zm7.938-3.8182 1.83 3.1222 1.829-3.1222h1.352l-2.465 3.8182 2.465 3.8182h-1.352l-1.829-2.9631-1.83 2.9631h-1.352l2.426-3.8182-2.426-3.8182z" fill="#fff"/><rect fill="#f9f9f9" height="256" rx="24" width="256" x="32" y="160"/><g fill="#131117"><path d="m229.636 252.57c-3.539 3.294-6.942 6.46-10.353 9.638-1.686-1.43-3.52-3.151-5.523-4.653-2.641-1.978-5.546-3.374-8.968-3.453-3.29-.076-5.924 1.14-7.693 3.883-4.362 6.744-8.614 13.555-12.934 20.325-5.807 9.099-11.504 18.269-17.484 27.251-8.266 12.412-20.276 17.604-34.9 17.423-8.534-.106-16.51-2.053-23.558-7.079-1.007-.721-1.965-1.514-3.214-2.476v34.179c-5.09 0-9.9684 0-15.009 0 0-35.821 0-71.686 0-107.677h14.918v9.808c1.181-.92 2.072-1.649 3-2.328 8.734-6.43 18.574-8.434 29.206-7.283 14.597 1.581 24.984 9.223 31.836 22.023.69 1.291.573 2.212-.238 3.397-3.358 4.913-6.602 9.898-9.794 14.71-.932-3.348-1.679-6.801-2.849-10.103-3.248-9.158-10.398-13.789-19.453-15.563-15.567-3.049-29.621 7.99-31.591 23.734-1.747 13.951 8.048 27.714 21.894 30.001 11.236 1.853 20.861-1.74 27.637-11.076 5.373-7.404 10.134-15.257 15.13-22.933 5.097-7.838 10.368-15.574 15.163-23.594 6.437-10.759 19.653-13.234 30.063-8.845 5.591 2.355 10.198 6.072 14.714 10.691z"/><path d="m176.984 311.548c.532-.622 8.968-12.291 9.36-12.747 2.2 2.087 4.158 4.219 6.392 6.004 3.641 2.909 7.813 4.321 12.481 3.049 3.806-1.038 6.719-3.347 7.625-7.31.928-4.057-.808-7.23-4.203-9.514-1.144-.769-3.17-2.049-4.373-2.72-1.34-.891-5.392-3.197-9.274-5.416-3.098-2.019-3.622-2.121-5.607-3.468 2.728-4.306 5.365-8.468 7.773-12.268 4.335 2.551 8.606 4.879 12.68 7.513 3.985 2.578 8.229 5 11.557 8.303 9.338 9.264 8.04 25.374-2.332 33.948-9.123 7.54-23.177 7.831-33.866.698-3.225-2.151-2.871-1.687-8.213-6.072z"/></g></g></svg>