<svg fill="none" height="18" viewBox="0 0 24 18" width="24" xmlns="http://www.w3.org/2000/svg"><path d="m24 9c0 .26522-.1054.51957-.2929.70711-.1875.18753-.4419.29289-.7071.29289h-22c-.265216 0-.51957-.10536-.707107-.29289-.187536-.18754-.292893-.44189-.292893-.70711s.105357-.51957.292893-.70711c.187537-.18753.441891-.29289.707107-.29289h22c.2652 0 .5196.10536.7071.29289.1875.18754.2929.44189.2929.70711zm-23-7h22c.2652 0 .5196-.10536.7071-.29289.1875-.18754.2929-.44189.2929-.70711 0-.265216-.1054-.51957-.2929-.707107-.1875-.187536-.4419-.292893-.7071-.292893h-22c-.265216 0-.51957.105357-.707107.292893-.187536.187537-.292893.441891-.292893.707107 0 .26522.105357.51957.292893.70711.187537.18753.441891.29289.707107.29289zm22 14h-22c-.265216 0-.51957.1054-.707107.2929-.187536.1875-.292893.4419-.292893.7071s.105357.5196.292893.7071c.187537.1875.441891.2929.707107.2929h22c.2652 0 .5196-.1054.7071-.2929s.2929-.4419.2929-.7071-.1054-.5196-.2929-.7071-.4419-.2929-.7071-.2929z" fill="#131117"/></svg>