<svg fill="none" height="40" viewBox="0 0 40 40" width="40" xmlns="http://www.w3.org/2000/svg" xmlns:xlink="http://www.w3.org/1999/xlink"><clipPath id="a"><path d="m0 0h40v40h-40z"/></clipPath><clipPath id="b"><path d="m9.18359 10h22.0967v22.0967h-22.0967z"/></clipPath><mask id="c" height="40" maskUnits="userSpaceOnUse" width="40" x="0" y="0"><path d="m40 0h-40v40h40z" fill="#fff"/></mask><g clip-path="url(#a)"><g mask="url(#c)"><path d="m40 20c0-11.0457-8.9543-20-20-20s-20 8.9543-20 20 8.9543 20 20 20 20-8.9543 20-20z" fill="#f55d3e"/><g clip-path="url(#b)"><path d="m17.4698 28.6438c0 .2731-.0809.5402-.2327.7673-.1517.2271-.3674.4041-.6198.5086-.2523.1045-.53.1319-.7979.0786s-.514-.1848-.7071-.378c-.1932-.1931-.3247-.4392-.378-.7071s-.0259-.5456.0786-.7979c.1045-.2524.2815-.468.5086-.6198.2272-.1517.4942-.2327.7673-.2327.3663 0 .7176.1455.9766.4045.2589.259.4044.6102.4044.9765zm7.5958-1.381c-.2732 0-.5402.081-.7673.2327-.2271.1518-.4041.3674-.5086.6198-.1046.2523-.1319.53-.0786.7979s.1848.514.3779.7071c.1932.1932.4393.3247.7072.378s.5455.0259.7979-.0786c.2523-.1045.468-.2815.6198-.5086.1517-.2271.2327-.4942.2327-.7673 0-.3663-.1455-.7175-.4045-.9765s-.6102-.4045-.9765-.4045zm4.1129-10.8455-2.4626 8.0022c-.129.4242-.3912.7956-.7479 1.059s-.7888.4048-1.2321.4032h-8.2958c-.4497-.0017-.8868-.149-1.2458-.4199-.3589-.2709-.6205-.6508-.7455-1.0828l-3.1229-10.9267h-1.45179c-.18313 0-.35877-.0727-.48827-.2022s-.20225-.3052-.20225-.4883.07275-.3588.20225-.4883.30514-.2022.48827-.2022h1.45179c.2999.001.5914.0991.8308.2796.2395.1805.4141.4336.4976.7216l.7 2.4514h15.1639c.108 0 .2146.0253.3111.0739.0965.0487.1802.1193.2444.2062.0643.0869.1072.1876.1254.2942.0182.1065.0111.2158-.0206.3191zm-1.5951.4876h-13.8346l2.0275 7.0951c.0413.1443.1284.2711.2481.3614.1198.0904.2657.1392.4157.1393h8.2958c.1477 0 .2916-.0473.4104-.1351.1189-.0878.2065-.2114.2499-.3526z" fill="#fff"/></g></g></g></svg>