<svg fill="none" height="199" viewBox="0 0 298 199" width="298" xmlns="http://www.w3.org/2000/svg" xmlns:xlink="http://www.w3.org/1999/xlink"><clipPath id="a"><path d="m20.1484 58.9951h258.055v79.8909h-258.055z"/></clipPath><path d="m0 0h298v199h-298z" fill="#e2e2e2"/><g clip-path="url(#a)"><path d="m97.8385 101.529h-9.321c-.0668-.753-.2432-1.435-.5293-2.0481-.2758-.6135-.6612-1.1401-1.1571-1.5814-.4847-.4514-1.074-.7957-1.7686-1.0323-.6937-.2465-1.4817-.3702-2.363-.3702-1.5425 0-2.8486.3652-3.9174 1.0966-1.0578.7313-1.862 1.7794-2.4127 3.1454-.5405 1.365-.8102 3.005-.8102 4.919 0 2.021.2757 3.715.8265 5.081.5618 1.354 1.372 2.377 2.4298 3.064 1.0577.677 2.3304 1.017 3.8181 1.017.8479 0 1.6084-.103 2.2808-.307.6714-.215 1.2555-.521 1.7514-.919s.8985-.876 1.2068-1.435c.3195-.57.5344-1.211.6449-1.92l9.321.064c-.1097 1.398-.5122 2.823-1.2059 4.274-.6946 1.441-1.6804 2.775-2.9591 4.001-1.2668 1.215-2.8367 2.193-4.7098 2.935s-4.0493 1.113-6.5288 1.113c-3.1073 0-5.8951-.651-8.3634-1.951-2.4568-1.302-4.4016-3.216-5.8339-5.742-1.4214-2.528-2.1321-5.619-2.1321-9.275 0-3.677.7272-6.7739 2.1816-9.2906 1.4544-2.5267 3.4157-4.4357 5.8837-5.7253 2.4684-1.3014 5.2228-1.9517 8.2641-1.9517 2.1377 0 4.1042.2842 5.9002.8542 1.796.5701 3.3719 1.4034 4.7268 2.5 1.3558 1.0865 2.4461 2.4255 3.2726 4.0169s1.3284 3.4135 1.504 5.4675zm10.4445 21.033c-1.619 0-3.052-.258-4.297-.775-1.234-.526-2.204-1.322-2.909-2.387-.705-1.064-1.058-2.419-1.058-4.064 0-1.355.237-2.511.711-3.468.474-.968 1.135-1.758 1.983-2.372.848-.612 1.835-1.079 2.959-1.402 1.135-.323 2.358-.532 3.669-.629 1.422-.108 2.562-.237 3.421-.387.871-.162 1.498-.382 1.885-.662.385-.29.578-.672.578-1.145v-.065c0-.645-.254-1.139-.761-1.483-.506-.345-1.156-.517-1.95-.517-.87 0-1.581.189-2.132.565-.539.365-.865.93-.975 1.693h-8.396c.11-1.505.6-2.892 1.471-4.161.882-1.28 2.165-2.3011 3.851-3.0642 1.685-.7748 3.791-1.1618 6.314-1.1618 1.817 0 3.448.2098 4.892.6294 1.443.4087 2.672.9838 3.685 1.726 1.014.7316 1.785 1.5916 2.314 2.5806.54.978.81 2.043.81 3.193v16.968h-8.528v-3.484h-.199c-.507.925-1.123 1.673-1.851 2.242-.716.57-1.537.985-2.462 1.242-.915.258-1.923.388-3.025.388zm2.975-5.613c.694 0 1.344-.14 1.951-.42.616-.279 1.118-.683 1.504-1.209.385-.528.578-1.167.578-1.92v-2.065c-.243.097-.501.189-.777.274-.264.087-.551.168-.859.243-.298.075-.618.145-.959.21-.33.064-.678.123-1.041.177-.706.108-1.284.285-1.735.532-.441.237-.772.533-.992.887-.21.344-.314.731-.314 1.162 0 .688.248 1.214.743 1.58.496.366 1.13.549 1.901.549zm25.642-27.8072v33.0322h-9.124v-33.0322zm3.585 33.0322v-33.0322h14.611c2.512 0 4.71.4839 6.595 1.4518 1.884.9679 3.349 2.3277 4.396 4.0805 1.047 1.7527 1.57 3.8013 1.57 6.1449 0 2.366-.54 4.414-1.62 6.146-1.069 1.731-2.573 3.064-4.512 4-1.928.935-4.182 1.403-6.76 1.403h-8.726v-6.968h6.875c1.08 0 2-.183 2.76-.548.772-.377 1.361-.909 1.769-1.597.418-.688.627-1.5.627-2.436 0-.9461-.209-1.7527-.627-2.4189-.408-.6778-.997-1.1935-1.769-1.5487-.76-.3653-1.68-.5483-2.76-.5483h-3.24v25.8709zm35.683.388c-1.62 0-3.053-.258-4.297-.775-1.234-.526-2.204-1.322-2.91-2.387-.705-1.064-1.057-2.419-1.057-4.064 0-1.355.237-2.511.71-3.468.474-.968 1.135-1.758 1.984-2.372.848-.612 1.835-1.079 2.958-1.402 1.135-.323 2.358-.532 3.669-.629 1.422-.108 2.562-.237 3.422-.387.87-.162 1.498-.382 1.884-.662.386-.29.578-.672.578-1.145v-.065c0-.645-.253-1.139-.76-1.483-.506-.345-1.157-.517-1.95-.517-.871 0-1.581.189-2.132.565-.541.365-.865.93-.976 1.693h-8.396c.111-1.505.601-2.892 1.472-4.161.881-1.28 2.165-2.3011 3.85-3.0642 1.686-.7748 3.79-1.1618 6.314-1.1618 1.818 0 3.448.2098 4.892.6294 1.444.4087 2.672.9838 3.686 1.726 1.014.7316 1.785 1.5916 2.314 2.5806.54.978.809 2.043.809 3.193v16.968h-8.527v-3.484h-.199c-.507.925-1.124 1.673-1.851 2.242-.716.57-1.537.985-2.463 1.242-.914.258-1.923.388-3.024.388zm2.975-5.613c.694 0 1.344-.14 1.95-.42.617-.279 1.118-.683 1.504-1.209.386-.528.578-1.167.578-1.92v-2.065c-.242.097-.501.189-.777.274-.264.087-.55.168-.859.243-.298.075-.617.145-.959.21-.33.064-.677.123-1.04.177-.706.108-1.284.285-1.737.532-.44.237-.77.533-.99.887-.21.344-.315.731-.315 1.162 0 .688.248 1.214.744 1.58s1.129.549 1.901.549zm25.708 5.548c-1.807 0-3.472-.462-4.992-1.387-1.51-.925-2.722-2.328-3.636-4.21-.904-1.881-1.355-4.252-1.355-7.113 0-2.989.473-5.419 1.421-7.291.959-1.87 2.193-3.2417 3.702-4.1126 1.521-.8709 3.119-1.3064 4.793-1.3064 1.256 0 2.359.2157 3.306.6453.947.4196 1.741.9837 2.38 1.6934.639.6993 1.124 1.4683 1.454 2.3073h.132v-12.5812h9.124v33.0322h-9.057v-4.064h-.199c-.353.839-.859 1.591-1.52 2.258-.65.656-1.444 1.178-2.38 1.565-.926.376-1.984.564-3.173.564zm3.371-6.839c.837 0 1.553-.236 2.149-.709.606-.484 1.069-1.161 1.388-2.032.331-.882.496-1.925.496-3.13 0-1.226-.165-2.274-.496-3.145-.319-.882-.782-1.554-1.388-2.016-.596-.473-1.312-.71-2.149-.71s-1.554.237-2.148.71c-.584.462-1.037 1.134-1.356 2.016-.308.871-.463 1.919-.463 3.145s.155 2.28.463 3.161c.319.871.772 1.543 1.356 2.016.594.463 1.311.694 2.148.694zm28.671 6.968c-2.711 0-5.047-.505-7.009-1.516-1.95-1.021-3.454-2.484-4.511-4.387-1.047-1.914-1.57-4.204-1.57-6.871 0-2.56.528-4.796 1.586-6.71s2.551-3.4037 4.479-4.4677c1.928-1.0648 4.204-1.5973 6.826-1.5973 1.917 0 3.653.2909 5.207.871 1.553.5809 2.881 1.425 3.982 2.532 1.103 1.097 1.951 2.431 2.546 4.001.595 1.569.892 3.338.892 5.306v2.065h-22.676v-4.904h14.28c-.011-.71-.198-1.333-.562-1.87-.353-.549-.831-.973-1.438-1.275-.595-.312-1.272-.467-2.032-.467-.738 0-1.417.155-2.033.467-.618.302-1.113.72-1.488 1.259-.363.537-.557 1.166-.578 1.886v5.291c0 .796.17 1.505.512 2.129.342.623.832 1.113 1.471 1.467.639.356 1.41.533 2.314.533.628 0 1.201-.086 1.719-.259.529-.171.98-.418 1.355-.741.375-.333.65-.731.826-1.193h8.33c-.286 1.72-.963 3.214-2.032 4.483-1.069 1.259-2.485 2.237-4.248 2.936-1.752.688-3.801 1.032-6.148 1.032zm24.344-33.4842v33.0322h-9.124v-33.0322z" fill="#1e1e1e"/><path d="m271.139 108.486c3.847-.047 7.112 3.173 7.065 7.155-.044 3.746-3.101 7.052-7.203 6.983-3.927-.066-6.945-3.296-6.937-7.099.009-3.89 3.232-7.089 7.075-7.039z" fill="#52a660"/><path d="m48.5701 67.6012-21.3634-5.7772s-.4081.8405-.4913 2.6368c-.0832 1.7964-1.4533 4.9427-2.8388 6.1119-1.3856 1.1697-.9933 2.6653 0 4.7514.9932 2.0857.6124 4.1343-.1337 5.7864-.746 1.6522-.4757 2.5197.5375 3.8834 1.0132 1.3633 1.4298 4.7867 2.0336 5.5823.6037.7961 1.3593 1.6906 1.4743 1.1147s.3816-1.8499 1.4589-1.4663 2.7821.9962 2.3399 1.5817c-.4423.5859-3.3862-1.6407-2.9076.4504.4785 2.0917.2802 3.3199-.2373 2.2276-.5174-1.0927-.578-2.2747-1.1661-1.2388-.5881 1.036-.1652 3.7864.6077 4.8906.7729 1.1046 1.8141.8455.9927 2.7459-.8213 1.901-.4447 2.788.0732 4.09.5177 1.302 4.0888 7.037 3.511 8.433-.5777 1.395-.8354 4.16.4309 4.249s4.986 1.176 5.9465 2.92 1.3835 2.127 2.7715 2.27c1.3881.143 1.2459 1.15 1.2965 2.024s1.0373.114 1.7208.741c.6835.628 3.2238 4.2 3.4018 6.654.1774 2.453.3873 2.728 1.0041 2.796.6163.069 14.1965 1.965 15.0724 1.205.8753-.761-.7666-2.392-.3716-3.426.3949-1.034 2.0273-4.547 2.8531-4.998.8257-.452 2.0946-.853 1.475-2.027-.6202-1.173-1.1869-2.066-1.5184-3.903-.332-1.835-.3688-1.354-1.6129-3.129-1.2445-1.775-21.6264-30.8508-21.6264-30.8508z" stroke="#1e1e1e" stroke-miterlimit="10" stroke-width="4.76294"/></g></svg>