<svg fill="none" height="40" viewBox="0 0 40 40" width="40" xmlns="http://www.w3.org/2000/svg" xmlns:xlink="http://www.w3.org/1999/xlink"><clipPath id="a"><path d="m0 0h40v40h-40z"/></clipPath><g clip-path="url(#a)"><path d="m40 20c0-11.0457-8.9543-20-20-20s-20 8.9543-20 20 8.9543 20 20 20 20-8.9543 20-20z" fill="#f55d3e"/><path d="m24.375 15h-11.25c-.1658 0-.3247.0658-.4419.1831-.1173.1172-.1831.2761-.1831.4419v11.25c0 .1658.0658.3247.1831.4419.1172.1173.2761.1831.4419.1831h11.25c.1658 0 .3247-.0658.4419-.1831.1173-.1172.1831-.2761.1831-.4419v-11.25c0-.1658-.0658-.3247-.1831-.4419-.1172-.1173-.2761-.1831-.4419-.1831zm-.625 11.25h-10v-10h10zm3.75-13.125v11.25c0 .1658-.0658.3247-.1831.4419-.1172.1173-.2761.1831-.4419.1831s-.3247-.0658-.4419-.1831c-.1173-.1172-.1831-.2761-.1831-.4419v-10.625h-10.625c-.1658 0-.3247-.0658-.4419-.1831-.1173-.1172-.1831-.2761-.1831-.4419s.0658-.3247.1831-.4419c.1172-.1173.2761-.1831.4419-.1831h11.25c.1658 0 .3247.0658.4419.1831.1173.1172.1831.2761.1831.4419z" fill="#fff"/></g></svg>