<svg width="400" height="400" viewBox="0 0 400 400" fill="none" xmlns="http://www.w3.org/2000/svg">
<rect width="400" height="400" fill="white"/>
<path d="M170.25 72H119C107.678 72 98.5 81.1782 98.5 92.5V297.5C98.5 308.822 107.678 318 119 318H170.25C181.572 318 190.75 308.822 190.75 297.5V92.5C190.75 81.1782 181.572 72 170.25 72Z" fill="#FF7029"/>
<g clip-path="url(#clip0_402_2)">
<path d="M283 205.25H231.75C220.428 205.25 211.25 208.692 211.25 212.938V289.812C211.25 294.058 220.428 297.5 231.75 297.5H283C294.322 297.5 303.5 294.058 303.5 289.812V212.938C303.5 208.692 294.322 205.25 283 205.25Z" fill="#57B33E"/>
</g>
<defs>
<clipPath id="clip0_402_2">
<rect x="211.25" y="205.25" width="92.25" height="92.25" rx="20.5" fill="white"/>
</clipPath>
</defs>
</svg>
