<svg fill="none" height="41" viewBox="0 0 41 41" width="41" xmlns="http://www.w3.org/2000/svg"><rect fill="#131117" height="40" rx="20" width="40" x=".5" y=".5"/><path d="m20.4977 12.5c-2.8857 0-5.1964 1.3143-6.8786 2.8786-1.6714 1.55-2.7892 3.4071-3.3178 4.6821-.1179.2822-.1179.5964 0 .8786.5286 1.275 1.6464 3.1321 3.3178 4.6821 1.6822 1.5643 3.9929 2.8786 6.8786 2.8786s5.1964-1.3143 6.8786-2.8786c1.6714-1.5535 2.7893-3.4071 3.3214-4.6821.1179-.2822.1179-.5964 0-.8786-.5321-1.275-1.65-3.1321-3.3214-4.6821-1.6822-1.5643-3.9929-2.8786-6.8786-2.8786zm5.1429 8c0 2.8393-2.3036 5.1429-5.1429 5.1429s-5.1428-2.3036-5.1428-5.1429 2.3035-5.1429 5.1428-5.1429 5.1429 2.3036 5.1429 5.1429zm-5.1429-2.2857c0 1.2607-1.025 2.2857-2.2857 2.2857-.4107 0-.7964-.1071-1.1286-.3-.0071.1-.0143.1964-.0143.3 0 1.8929 1.5358 3.4286 3.4286 3.4286 1.8929 0 3.4286-1.5357 3.4286-3.4286s-1.5357-3.4286-3.4286-3.4286c-.1 0-.2.0036-.3.0143.1893.3322.3.7179.3 1.1286z" fill="#fff"/></svg>