<svg fill="none" height="40" viewBox="0 0 40 40" width="40" xmlns="http://www.w3.org/2000/svg"><path d="m40 20c0-11.0457-8.9543-20-20-20s-20 8.9543-20 20 8.9543 20 20 20 20-8.9543 20-20z" fill="#f55d3e"/><path d="m12.4633 24.0264c-.1707.3953-.0898.8535.2067 1.1679l6.1093 6.4688c.2022.2156.4852.3369.7817.3369s.5795-.1213.7816-.3369l6.1094-6.4688c.2965-.3144.3773-.7726.2066-1.1679s-.5615-.6514-.9882-.6514h-3.2344v-12.9375c0-.79512-.6424-1.4375-1.4375-1.4375h-2.875c-.7951 0-1.4375.64238-1.4375 1.4375v12.9375h-3.2344c-.4312 0-.8176.2561-.9883.6514z" fill="#fff"/></svg>