<svg fill="none" height="40" viewBox="0 0 40 40" width="40" xmlns="http://www.w3.org/2000/svg"><rect fill="#131117" height="40" rx="20" width="40"/><path d="m12.9922 13.5312c-.8928 0-1.6172.7244-1.6172 1.6172 0 .5088.2392.9872.6469 1.2938l7.3312 5.4984c.3841.2864.9097.2864 1.2938 0l7.3312-5.4984c.4077-.3066.6469-.785.6469-1.2938 0-.8928-.7244-1.6172-1.6172-1.6172zm-1.6172 3.7735v7.0078c0 1.1893.9669 2.1563 2.1562 2.1563h12.9376c1.1893 0 2.1562-.967 2.1562-2.1563v-7.0078l-7.3313 5.4984c-.7681.5761-1.8193.5761-2.5874 0z" fill="#f5f5f5"/></svg>