<svg fill="none" height="32" viewBox="0 0 32 32" width="32" xmlns="http://www.w3.org/2000/svg" xmlns:xlink="http://www.w3.org/1999/xlink"><clipPath id="a"><path d="m0 0h32v32h-32z"/></clipPath><g clip-path="url(#a)"><path d="m32 16c0-8.83656-7.1634-16-16-16-8.83656 0-16 7.16344-16 16 0 8.8366 7.16344 16 16 16 8.8366 0 16-7.1634 16-16z" fill="#f5f5f5"/><path d="m10.3939 10.8252c-.71428 0-1.2938.5795-1.2938 1.2938 0 .407.19136.7897.51752 1.035l5.86498 4.3987c.3073.2291.7277.2291 1.035 0l5.865-4.3987c.3261-.2453.5175-.628.5175-1.035 0-.7143-.5795-1.2938-1.2938-1.2938zm-1.2938 3.0188v5.6062c0 .9515.77352 1.7251 1.725 1.7251h10.35c.9515 0 1.725-.7736 1.725-1.7251v-5.6062l-5.865 4.3987c-.6145.4609-1.4555.4609-2.07 0z" fill="#131117"/></g></svg>