<svg fill="none" height="152" viewBox="0 0 152 152" width="152" xmlns="http://www.w3.org/2000/svg"><g fill="#f55d3e"><path d="m151.5 40.6542c-3.8 3.6-7.5 7-11.2 10.5-1.8-1.6-3.8-3.4-6-5-2.9-2.1-6-3.7-9.7-3.7-3.6-.1-6.4 1.2-8.3 4.2-4.7 7.3-9.3 14.7-14 22.1-6.3 9.9-12.5 19.8-19 29.6-9 13.4998-22 19.0998-37.9 18.8998-9.3-.1-17.9-2.2-25.6-7.7-1.1-.8-2.1-1.6-3.5-2.7v37.1c-5.5 0-10.8 0-16.3 0 0-38.9 0-77.7998 0-116.7998h16.2v10.6c1.3-1 2.2-1.8 3.3-2.5 9.5-7 20.2-9.2 31.7-7.9 15.8 1.7 27.1 10 34.5 23.9.7 1.4.6 2.4-.3 3.7-3.6 5.3-7.2 10.7-10.6 16-1-3.6-1.8-7.4-3.1-11-3.5-9.9-11.3-15-21.1-16.9-16.9-3.3-32.1 8.7-34.3 25.8-1.9 15.1 8.7 30.1 23.8 32.5998 12.2 2 22.6-1.8998 30-11.9998 5.8-8 11-16.6 16.4-24.9 5.5-8.5 11.3-16.9 16.5-25.6 7-11.7 21.3-14.4 32.6-9.6 6 2.3 11 6.3 15.9 11.3z"/><path d="m94.3 104.654c.6-.7 9.7-13.2997 10.2-13.7997 2.4 2.3 4.5 4.6 6.9 6.5 4 3.1997 8.5 4.6997 13.5 3.2997 4.1-1.0997 7.3-3.5997 8.3-7.8997 1-4.4-.9-7.8-4.6-10.3-1.2-.8-3.4-2.2-4.7-3-1.5-1-5.9-3.5-10.1-5.9-3.4-2.2-3.9-2.3-6.1-3.8 3-4.7 5.8-9.2 8.4-13.3 4.7 2.8 9.3 5.3 13.8 8.2 4.3 2.8 8.9 5.4 12.5 9 10.1 10.1 8.7 27.4997-2.5 36.7997-9.9 8.2-25.2 8.5-36.8.8-3.4-2.3-3-1.8-8.8-6.6z"/></g></svg>