<svg fill="none" height="41" viewBox="0 0 41 41" width="41" xmlns="http://www.w3.org/2000/svg"><rect fill="#131117" height="40" rx="20" width="40" x=".5" y=".5"/><path d="m13.5469 14.2419c0-2.0666 1.6753-3.7419 3.7419-3.7419h6.4206c2.0666 0 3.7419 1.6753 3.7419 3.7419 0 1.3086-.6717 2.4603-1.6892 3.1291 1.0175.6688 1.6892 1.8205 1.6892 3.1291 0 2.0666-1.6753 3.7419-3.7419 3.7419h-.0812c-.9689 0-1.8517-.3682-2.5162-.9723v3.4478c0 2.0941-1.7191 3.7825-3.8031 3.7825-2.0614 0-3.762-1.6702-3.762-3.7419 0-1.3085.6716-2.4602 1.689-3.129-1.0174-.6688-1.689-1.8205-1.689-3.129 0-1.3086.6717-2.4603 1.6891-3.1291-1.0174-.6688-1.6891-1.8205-1.6891-3.1291zm6.3394 3.742h-2.5975c-1.3897 0-2.5162 1.1265-2.5162 2.5162 0 1.3843 1.1178 2.5075 2.5001 2.5161h.0161 2.5975zm1.2257 2.5162c0 1.3896 1.1265 2.5162 2.5162 2.5162h.0812c1.3897 0 2.5162-1.1266 2.5162-2.5162 0-1.3897-1.1265-2.5162-2.5162-2.5162h-.0812c-1.3897 0-2.5162 1.1265-2.5162 2.5162zm-3.8232 3.7419c-.0054 0-.0108 0-.0161 0-1.3823.0086-2.5001 1.1318-2.5001 2.5161 0 1.3846 1.1416 2.5162 2.5363 2.5162 1.4173 0 2.5774-1.1498 2.5774-2.5568v-2.4755zm0-12.5163c-1.3897 0-2.5162 1.1265-2.5162 2.5162s1.1265 2.5162 2.5162 2.5162h2.5975v-5.0324zm3.8232 5.0324h2.5974c1.3897 0 2.5162-1.1265 2.5162-2.5162s-1.1265-2.5162-2.5162-2.5162h-2.5974z" fill="#f5f5f5"/></svg>