<svg fill="none" height="40" viewBox="0 0 40 40" width="40" xmlns="http://www.w3.org/2000/svg" xmlns:xlink="http://www.w3.org/1999/xlink"><clipPath id="a"><path d="m0 0h40v40h-40z"/></clipPath><g clip-path="url(#a)"><path d="m40 20c0-11.0457-8.9543-20-20-20s-20 8.9543-20 20 8.9543 20 20 20 20-8.9543 20-20z" fill="#f55d3e"/><path d="m27.5 15.0002c-.0002-.4675-.1316-.9256-.3791-1.3223-.2475-.3966-.6013-.7159-1.0211-.9215-.4199-.2057-.889-.2895-1.3541-.242-.4651.0476-.9076.2246-1.2771.511-.3696.2864-.6514.6707-.8135 1.1092-.1621.4386-.198.9138-.1036 1.3717s.3153.8801.6376 1.2188c.3224.3386.7332.5801 1.1859.697v.7031c0 .3315-.1317.6495-.3661.8839s-.5524.3661-.8839.3661h-5.625c-.4391-.0005-.8705.1157-1.25.3367v-2.2898c.5892-.1521 1.1026-.5139 1.4441-1.0175s.4877-1.1145.411-1.7181c-.0767-.6037-.3709-1.1586-.8274-1.5609-.4566-.4022-1.0442-.6241-1.6527-.6241s-1.1961.2219-1.6526.6241c-.4566.4023-.7508.9572-.8275 1.5609-.0766.6036.0695 1.2145.411 1.7181s.8549.8654 1.4441 1.0175v5.1562c-.5892.1522-1.1026.5139-1.4441 1.0175s-.4876 1.1145-.411 1.7182c.0767.6036.3709 1.1585.8275 1.5608.4565.4022 1.0441.6241 1.6526.6241s1.1961-.2219 1.6527-.6241c.4565-.4023.7507-.9572.8274-1.5608.0767-.6037-.0695-1.2146-.411-1.7182s-.8549-.8653-1.4441-1.0175v-.7031c0-.3315.1317-.6495.3661-.8839s.5524-.3661.8839-.3661h5.625c.663 0 1.2989-.2634 1.7678-.7322.4688-.4689.7322-1.1048.7322-1.7678v-.7031c.5365-.1394 1.0115-.4527 1.3508-.891.3393-.4382.5237-.9766.5242-1.5309zm-13.125 0c0-.2472.0733-.4889.2107-.6945.1373-.2055.3325-.3657.561-.4603.2284-.0947.4797-.1194.7222-.0712.2424.0483.4652.1673.64.3421s.2939.3976.3421.64c.0482.2425.0235.4939-.0711.7223-.0947.2284-.2549.4236-.4604.5609-.2056.1374-.4473.2107-.6945.2107-.3315 0-.6495-.1317-.8839-.3661s-.3661-.5524-.3661-.8839zm2.5 10c0 .2472-.0733.4889-.2107.6945-.1373.2055-.3325.3657-.5609.4604-.2284.0946-.4798.1193-.7223.0711-.2424-.0482-.4652-.1673-.64-.3421s-.2938-.3976-.3421-.64c-.0482-.2425-.0235-.4938.0712-.7222.0946-.2285.2548-.4237.4603-.561.2056-.1374.4473-.2107.6945-.2107.3315 0 .6495.1317.8839.3661s.3661.5524.3661.8839zm8.125-8.75c-.2472 0-.4889-.0733-.6945-.2107-.2055-.1373-.3657-.3325-.4603-.5609-.0947-.2284-.1194-.4798-.0712-.7223.0483-.2424.1673-.4652.3421-.64s.3976-.2938.64-.3421c.2425-.0482.4939-.0235.7223.0712.2284.0946.4236.2548.5609.4603.1374.2056.2107.4473.2107.6945 0 .3315-.1317.6495-.3661.8839s-.5524.3661-.8839.3661z" fill="#fff"/></g></svg>