<svg fill="none" height="40" viewBox="0 0 40 40" width="40" xmlns="http://www.w3.org/2000/svg"><rect fill="#131117" height="40" rx="20" width="40"/><g fill="#fff"><path d="m22.1679 11.4714v13.8946c0 1.5548 1.0737 2.4211 2.2105 2.4211 1.0527 0 2.2106-.7369 2.2106-2.4211v-13.7894c0-1.4252-1.0527-2.31574-2.2106-2.31574s-2.2105.98214-2.2105 2.21054z" fill-opacity=".825"/><path d="m16.3785 18.5239v6.8421c0 1.5547 1.0737 2.421 2.2105 2.421 1.0526 0 2.2105-.7368 2.2105-2.421v-6.7368c0-1.4253-1.0526-2.3158-2.2105-2.3158s-2.2105.9821-2.2105 2.2105z"/><path d="m12.7995 27.7871c1.2208 0 2.2105-.9897 2.2105-2.2106 0-1.2208-.9897-2.2105-2.2105-2.2105-1.2209 0-2.2106.9897-2.2106 2.2105 0 1.2209.9897 2.2106 2.2106 2.2106z"/></g></svg>