<svg fill="none" height="37" viewBox="0 0 97 37" width="97" xmlns="http://www.w3.org/2000/svg"><path d="m63.5358 7.15118c-3.3849-4.35087-8.6692-7.15118-14.6088-7.15118-6.0892 0-11.4893 2.94153-14.8601 7.48162 2.2849 3.07708 3.6377 6.88848 3.6377 11.01628 0 4.1277-1.3528 7.9391-3.6377 11.0162 3.3708 4.5401 8.7723 7.4817 14.8601 7.4817 5.9396 0 11.2239-2.8003 14.6088-7.1512-2.4373-3.1336-3.889-7.0707-3.889-11.3481-.0015-4.2746 1.4517-8.2117 3.889-11.34532z" fill="#808283"/><path d="m78.1449.00146484c-5.9395 0-11.2238 2.80031516-14.6088 7.15117516 2.4374 3.13356 3.8891 7.07066 3.8891 11.34816 0 4.2774-1.4517 8.2145-3.8891 11.3481 3.385 4.3508 8.6693 7.1511 14.6088 7.1511 10.217 0 18.4979-8.2823 18.4979-18.4978 0-10.21559-8.2823-18.50073516-18.4979-18.50073516z" fill="#00c2f3"/><path d="m63.5361 7.15137c-2.4374 3.13353-3.8891 7.07073-3.8891 11.34813s1.4517 8.2145 3.8891 11.3481c2.4373-3.1336 3.889-7.0707 3.889-11.3481s-1.4517-8.2146-3.889-11.34813z" fill="#77b1ca"/><path d="m34.0656 7.48309c-3.3709-4.5401-8.7724-7.48162516-14.8602-7.48162516-10.21698 0-18.49788 8.28231516-18.49788 18.49783516 0 10.2156 8.28232 18.4979 18.49788 18.4979 6.0892 0 11.4893-2.9415 14.8602-7.4816-2.2849-3.0771-3.6378-6.8885-3.6378-11.0163 0-4.1277 1.3529-7.9391 3.6378-11.01621z" fill="#f7941d"/><path d="m34.0655 7.48291c-2.2849 3.07709-3.6378 6.88849-3.6378 11.01629 0 4.1277 1.3529 7.9391 3.6378 11.0162 2.2848-3.0771 3.6377-6.8885 3.6377-11.0162 0-4.1278-1.3529-7.9392-3.6377-11.01629z" fill="#cc985d"/><g fill="#fff"><path d="m78.461 17.5093h8.1566v.8798c0 2.4416-.7894 4.461-2.3696 6.0567-1.6776 1.6777-3.6801 2.5151-6.0073 2.5151-2.3936 0-4.3876-.8021-5.9833-2.4049-1.5958-1.6043-2.3936-3.6109-2.3936-6.0201 0-2.4261.7936-4.4483 2.3809-6.0694 1.5872-1.6198 3.5784-2.4304 5.9706-2.4304 1.3189 0 2.5475.2683 3.6871.8064 1.1396.538 2.1084 1.3105 2.9063 2.3202l-2.5151 1.9784c-1.1396-1.3514-2.4755-2.0265-4.0049-2.0265-1.4333 0-2.6294.5169-3.5897 1.5506s-1.4404 2.3244-1.4404 3.8707c0 1.5139.4928 2.7933 1.4771 3.834.9843 1.0422 2.1945 1.5633 3.6264 1.5633 1.5139 0 2.7269-.5451 3.6392-1.6367.4236-.4886.7569-1.1721 1.0012-2.0519h-4.5429v-2.7353z"/><path d="m20.8898 10.354v16.2893h-3.3454v-16.2893z"/><path d="m42.6895 26.6433v-16.2893h4.6163c2.5405 0 4.4935.603 5.8619 1.8076 1.7101 1.5138 2.5645 3.5657 2.5645 6.1542 0 1.3189-.2246 2.5362-.6722 3.6504-.4477 1.1156-1.0874 2.0476-1.9177 2.7961-1.384 1.254-3.265 1.881-5.6416 1.881zm3.3454-13.5779v10.8185h.6354c1.6763 0 2.9557-.3742 3.834-1.1241 1.2216-1.0421 1.8316-2.491 1.8316-4.3466 0-1.6282-.4604-2.926-1.3797-3.8947-.9193-.9688-2.1535-1.4531-3.6998-1.4531z"/></g></svg>