<svg fill="none" height="340" viewBox="0 0 234 340" width="234" xmlns="http://www.w3.org/2000/svg"><path d="m39.483 320.22c-.596-.48-.1454-1.425.5959-1.279 13.8243 2.689 17.1242 18.65 53.0441 1.119 3.4887-1.701 3.6486-.669 2.6311-5.117-.3344-1.453-8.1551-26.82-4.0267-23.622 2.0933 1.628 3.2271 3.94 4.9134 6.091 2.1659 2.762 5.1462 4.87 7.2392 7.777 2.544 3.503 3.125 6.149 7.864 7.632 10.278 3.212 12.385 3.794 30.702-7.516 37.984-23.462 5.48-17.705-11.979-25.002-2.805-1.163-9.695-3.111-11.818-5.83-.363-.465-.058-1.163.538-1.192 29.495-1.322 32.562 11.906 45.122 7.341 4.913-1.788 12.094-8.678 10.582-14.391-1.846-7.007-8.649-12.414-9.565-19.959-.451-3.721.175-7.559-.48-11.222-.596-3.372-3.198-6.556-2.311-10.074 1.192-4.753 8.548 13.839 9.289 15.293 9.71 19.086 29.146 15.568 30.658-.116 1.133-11.673 1.511-23.099 3.067-34.598 3.518-26.02 16.019-22.764-5.19-57.623 14.391-35.105 22.721-79.8925 29.48-114.5913 1.73-8.8528 6.673-25.62802-.043-33.2742555-2.806-3.1980445-21.718 108.4865555-30.091 136.4545555-6.759 22.547-32.809 60.487-42.2 70.619-49.657 53.567-84.3262 64.949-122.5429 93.688-8.4312 4.725-24.6395 15.743-25.39542 22.59-1.52634 13.926 55.36982 17.299 29.91632-3.198z" fill="#231f20"/><path d="m212.163 152.105c2.936 7.297-2.864 10.277-5.306 16.383-2.456 6.149-1.541 15.35-5.16 21.005-3.155 4.942-12.836 7.457-17.575 11.498-3.692 3.155-7.283 6.571-12.313 7.501-2.994.553-9.884-2.195-9.463 2.428.044.407.349.756.756.785 5.379.421 14.231-3.387 12.749 5.698-1.018 6.251-8.01 9.057-10.888 14.275-5.364 9.711-2.486 27.925-25.09 28.666-6.149.204-15.162-.567-20.381-4.273-.349-.248-.843-.233-1.133.087-4.129 4.593 13.722 5.742 10.161 8.446-9.144 6.933-21.398 10.175-31.3267 16.353-7.6026 4.725-15.5105 23.724-25.5117 20.221-4.6662-1.629-7.2392-6.818-12.1962-7.123-.596-.029-1.0757.537-.8867 1.09.9594 2.762 7.1229 2.122 7.0502 6.585-.1163 7.021-21.5432 12.429-32.6346 10.873-2.9073-.407-8.7656-3.648-11.0188-.189-1.7734 2.719 7.9225 1.003 7.2974 3.227-.7414 2.675-6.556 2.646-8.9109 4.463-10.1611 7.821-.814 19.654-19.566193 18.869-.450634-.015-.81404511-.393-.81404511-.843-.26165789-24.858 30.55583811-39.54 49.07543811-49.149 23.7818-12.341 44.7872-29.553 66.9848-44.351 9.667-6.454 26.456-17.851 52.535-54.105 11.615-16.15 20.467-30.221 29.088-48.276.174-.363.581-.567.959-.465 2.399.538 10.568 2.995 13.519 10.321z" fill="#414042"/></svg>