<svg fill="none" height="512" viewBox="0 0 448 512" width="448" xmlns="http://www.w3.org/2000/svg"><path d="m100.28 448h-92.88v-299.1h92.88zm-46.49-339.9c-29.7 0-53.79-24.6-53.79-54.3.00000021-14.266 5.66714-27.9477 15.7547-38.0353 10.0876-10.08755 23.7693-15.7546902 38.0353-15.7546902s27.9477 5.6671402 38.0353 15.7546902c10.0877 10.0876 15.7547 23.7693 15.7547 38.0353 0 29.7-24.1 54.3-53.79 54.3zm394.11 339.9h-92.68v-145.6c0-34.7-.7-79.2-48.29-79.2-48.29 0-55.69 37.7-55.69 76.7v148.1h-92.78v-299.1h89.08v40.8h1.3c12.4-23.5 42.69-48.3 87.88-48.3 94 0 111.28 61.9 111.28 142.3v164.3z" fill="#131117" fill-opacity=".9"/></svg>