<svg fill="none" height="16" viewBox="0 0 16 16" width="16" xmlns="http://www.w3.org/2000/svg"><path d="m3.58143 14.9997h-3.317144v-9.34689h3.317144zm-1.66036-10.62189c-1.060713 0-1.92107-.76875-1.92107-1.69687.00000001-.44582.202398-.87337.562668-1.18861.360271-.31523.848902-.49233 1.358402-.49233s.99813.1771 1.35841.49233c.36027.31524.56266.74279.56266 1.18861 0 .92812-.86071 1.69687-1.92107 1.69687zm14.07533 10.62189h-3.31v-4.55c0-1.08439-.025-2.47501-1.7246-2.47501-1.72466 0-1.98894 1.17812-1.98894 2.39691v4.6281h-3.31357v-9.34689h3.18142v1.275h.04643c.44286-.73437 1.52466-1.50937 3.13856-1.50937 3.3572 0 3.9743 1.93437 3.9743 4.44687v5.13439z" fill="#fff" fill-opacity=".9"/></svg>