<svg fill="none" height="40" viewBox="0 0 40 40" width="40" xmlns="http://www.w3.org/2000/svg"><rect fill="#f55d3e" height="40" rx="20" width="40"/><path d="m20 18.625c-.5778.0002-1.1363.2083-1.5734.5864-.437.378-.7234.9007-.8068 1.4724-.0835.5718.0417 1.1546.3525 1.6417s.7865.8462 1.3402 1.0115v1.4755c0 .1823.0724.3572.2014.4861.1289.129.3038.2014.4861.2014s.3572-.0724.4861-.2014c.129-.1289.2014-.3038.2014-.4861v-1.4755c.5537-.1653 1.0294-.5244 1.3402-1.0115s.436-1.0699.3525-1.6417c-.0834-.5717-.3698-1.0944-.8068-1.4724-.4371-.3781-.9956-.5862-1.5734-.5864zm0 3.4375c-.204 0-.4033-.0605-.5729-.1738s-.3018-.2744-.3799-.4628c-.078-.1884-.0984-.3958-.0586-.5958.0398-.2001.138-.3838.2822-.5281.1442-.1442.328-.2424.528-.2822.2001-.0398.4074-.0194.5958.0587.1885.0781.3495.2102.4629.3798.1133.1696.1737.369.1737.5729 0 .2736-.1086.5359-.302.7293s-.4557.302-.7292.302zm6.875-6.1875h-2.75v-2.0625c0-1.094-.4346-2.1432-1.2082-2.9168s-1.8228-1.2082-2.9168-1.2082-2.1432.4346-2.9168 1.2082-1.2082 1.8228-1.2082 2.9168v2.0625h-2.75c-.3647 0-.7144.1449-.9723.4027-.2578.2579-.4027.6076-.4027.9723v9.625c0 .3647.1449.7144.4027.9723.2579.2578.6076.4027.9723.4027h13.75c.3647 0 .7144-.1449.9723-.4027.2578-.2579.4027-.6076.4027-.9723v-9.625c0-.3647-.1449-.7144-.4027-.9723-.2579-.2578-.6076-.4027-.9723-.4027zm-9.625-2.0625c0-.7293.2897-1.4288.8055-1.9445.5157-.5158 1.2152-.8055 1.9445-.8055s1.4288.2897 1.9445.8055c.5158.5157.8055 1.2152.8055 1.9445v2.0625h-5.5zm9.625 13.0625h-13.75v-9.625h13.75z" fill="#fff"/></svg>