<svg fill="none" height="36" viewBox="0 0 44 36" width="44" xmlns="http://www.w3.org/2000/svg"><g fill="#131117"><path d="m43.4977 4.64047c-1.0897 1.06972-2.1377 2.09784-3.1879 3.12954-.5193-.4644-1.084-1.02316-1.7008-1.51083-.8133-.6421-1.7079-1.0955-2.7616-1.12124-1.0131-.0245-1.824.37005-2.3689 1.26095-1.3431 2.18968-2.6524 4.40151-3.9826 6.59971-1.788 2.9544-3.5423 5.932-5.3837 8.8484-2.5455 4.0303-6.2435 5.7163-10.7465 5.6575-2.628-.0343-5.08408-.6666-7.25427-2.2988-.31019-.234-.60529-.4913-.98984-.8038v11.0981c-1.56725 0-3.06944 0-4.62159 0 0-11.6312 0-23.277 0-34.963269h4.59371v3.184719c.36364-.29899.63782-.53549.92362-.75605 2.68955-2.088025 5.71947-2.738689 8.99337-2.364955 4.495.513425 7.6934 2.994785 9.8032 7.151195.2126.41912.1766.71808-.0732 1.10286-1.034 1.5954-2.0331 3.2141-3.016 4.7765-.287-1.0869-.517-2.2082-.8771-3.2803-1.0003-2.974-3.202-4.47754-5.9902-5.05344-4.7936-.99009-9.12123 2.59409-9.72768 7.70624-.5379 4.5302 2.47809 8.9991 6.74188 9.7417 3.4598.6016 6.4235-.5649 8.5101-3.5965 1.6543-2.4041 3.1205-4.9541 4.6587-7.4464 1.5696-2.54512 3.1927-5.05717 4.6692-7.66103 1.982-3.493514 6.0518-4.297355 9.2572-2.87226 1.7218.76463 3.1403 1.97161 4.5309 3.47146z"/><path d="m27.2832 23.7909c.1639-.2022 2.7616-3.991 2.8824-4.1393.6774.6776 1.2803 1.3699 1.9681 1.9495 1.1211.9448 2.406 1.4031 3.8432.9901 1.1722-.3369 2.0691-1.0869 2.3479-2.3735.2859-1.3172-.2486-2.3478-1.2942-3.0891-.352-.25-.9759-.6654-1.3465-.8835-.4124-.2892-1.6602-1.0379-2.8557-1.7584-.9538-.6556-1.1153-.6887-1.7264-1.1261.84-1.3982 1.6521-2.7498 2.3933-3.98365 1.3349.82835 2.6501 1.58435 3.9047 2.43965 1.2269.8369 2.5339 1.6236 3.5586 2.6958 2.8754 3.0083 2.4758 8.2394-.7179 11.0234-2.8093 2.4482-7.1369 2.5426-10.4282.2267-.9934-.6985-.8842-.5478-2.5293-1.9716z"/></g></svg>