<?xml version="1.0" encoding="UTF-8" standalone="no"?>
<!-- Created with Inkscape (http://www.inkscape.org/) -->

<svg
   version="1.1"
   id="svg2"
   width="121.33333"
   height="121.33333"
   viewBox="0 0 121.33333 121.33333"
   sodipodi:docname="Principal (Ed. 4.0).ai"
   xmlns:inkscape="http://www.inkscape.org/namespaces/inkscape"
   xmlns:sodipodi="http://sodipodi.sourceforge.net/DTD/sodipodi-0.dtd"
   xmlns="http://www.w3.org/2000/svg"
   xmlns:svg="http://www.w3.org/2000/svg">
  <defs
     id="defs6">
    <clipPath
       clipPathUnits="userSpaceOnUse"
       id="clipPath16">
      <path
         d="M 0,91 H 91 V 0 H 0 Z"
         id="path14" />
    </clipPath>
  </defs>
  <sodipodi:namedview
     id="namedview4"
     pagecolor="#ffffff"
     bordercolor="#000000"
     borderopacity="0.25"
     inkscape:showpageshadow="2"
     inkscape:pageopacity="0.0"
     inkscape:pagecheckerboard="0"
     inkscape:deskcolor="#d1d1d1" />
  <g
     id="g8"
     inkscape:groupmode="layer"
     inkscape:label="Principal (Ed. 4.0)"
     transform="matrix(1.3333333,0,0,-1.3333333,0,121.33333)">
    <g
       id="g10">
      <g
         id="g12"
         clip-path="url(#clipPath16)">
        <g
           id="g18"
           transform="translate(34.5259,63.8403)">
          <path
             d="m 0,0 c -1.746,-2.691 -2.118,-5.566 -2.637,-8.337 -2.419,-12.902 -4.205,-25.883 -4.41,-39.039 -0.019,-1.249 -0.003,-2.505 -0.122,-3.746 -0.267,-2.799 -2.343,-4.818 -4.793,-4.752 -2.454,0.068 -4.205,1.799 -4.517,4.609 -0.138,1.236 -0.095,2.496 -0.087,3.745 0.114,20.119 0.236,40.238 0.357,60.357 0.004,0.625 -0.023,1.254 0.032,1.874 0.257,2.871 2.231,4.91 4.69,4.873 2.271,-0.032 4.102,-2.008 4.326,-4.777 0.09,-1.116 0.003,-2.247 0,-3.371 -0.003,-1.121 -0.001,-2.241 -0.001,-3.346 0.341,-0.063 0.705,-0.229 0.794,-0.134 4.456,4.747 11.07,3.177 14.084,-2.826 2.579,-5.137 3.734,-10.548 4.546,-16.113 0.336,-2.301 0.571,-4.617 0.902,-7.343 1.547,1.181 2.668,2.127 3.876,2.943 5.537,3.738 11.728,2.445 15.665,-2.988 3.642,-5.025 4.954,-10.846 5.578,-16.746 0.523,-4.939 0.189,-9.987 -0.008,-14.976 -0.085,-2.142 -0.901,-4.186 -3.359,-4.862 -1.922,-0.529 -3.422,0.288 -4.652,1.658 -1.099,1.224 -0.919,2.799 -0.91,4.29 0.032,5.368 0.31,10.734 -0.589,16.079 -0.418,2.483 -1.059,4.888 -1.977,7.201 -1.586,3.994 -3.719,4.334 -6.517,1.019 -3.273,-3.877 -4.113,-8.745 -5.074,-13.516 -0.742,-3.691 -0.724,-7.446 -0.739,-11.201 -0.015,-3.77 -1.88,-6.015 -4.707,-5.953 -2.695,0.059 -5.053,2.589 -5.077,5.908 -0.07,9.996 0.045,19.994 -0.68,29.975 C 3.515,-12.895 2.889,-6.325 0,0"
             style="fill:#ff474e;fill-opacity:1;fill-rule:nonzero;stroke:none"
             id="path20" />
        </g>
      </g>
    </g>
  </g>
</svg>
