<svg fill="none" height="41" viewBox="0 0 41 41" width="41" xmlns="http://www.w3.org/2000/svg" xmlns:xlink="http://www.w3.org/1999/xlink"><clipPath id="a"><path d="m10.5 10.5h21v21h-21z"/></clipPath><rect fill="#131117" height="40" rx="20" width="40" x=".5" y=".5"/><g clip-path="url(#a)"><path d="m11.7636 11.4057 11.6199-.8582c1.4274-.1225 1.794-.0399 2.6916.6125l3.7092 2.6131c.6117.4494.8154.5718.8154 1.0611v14.331c0 .8982-.3261 1.4295-1.4679 1.5106l-13.4937.8173c-.8568.0405-1.2649-.0819-1.7136-.6538l-2.7315-3.5519c-.4899-.6537-.693-1.143-.693-1.7151v-12.7386c0-.7343.3261-1.3467 1.2636-1.428z" fill="#131117"/><path clip-rule="evenodd" d="m23.3835 10.5477-11.6199.8582c-.9375.0811-1.2636.6937-1.2636 1.4278v12.7386c0 .5719.2031 1.0612.693 1.7151l2.7315 3.5517c.4487.5719.8568.6945 1.7136.6538l13.4939-.8169c1.141-.0813 1.4679-.6126 1.4679-1.5106v-14.331c0-.4641-.1833-.5979-.723-.9939l-3.8018-2.6805c-.8974-.6524-1.2642-.735-2.6916-.6125zm-7.4403 4.0521c-1.1019.0742-1.3518.091-1.9776-.4179l-1.5909-1.2654c-.1617-.1638-.0805-.3682.3269-.4089l11.1706-.8163c.938-.0819 1.4265.2451 1.7934.5307l1.9158 1.3881c.0819.0414.2856.2856.0405.2856l-11.5359.6945-.1428.0098zm-1.2846 14.4432v-12.1659c0-.5313.1632-.7764.6517-.8176l13.2497-.7757c.4494-.0405.6525.2451.6525.7755v12.0849c0 .5313-.0819.9807-.8155 1.0212l-12.6791.735c-.7336.0406-1.0591-.2037-1.0591-.8574zm12.516-11.5137c.0813.3675 0 .735-.3675.777l-.6111.1212v8.9823c-.5306.2856-1.0191.4488-1.4273.4488-.6525 0-.8155-.2043-1.3041-.8163l-3.9963-6.2874v6.0831l1.2642.2862s0 .735-1.02.735l-2.8119.1632c-.0819-.1638 0-.5718.285-.6531l.7343-.2037v-8.043l-1.0191-.0825c-.0819-.3675.1218-.8982.693-.9394l3.0171-.203 4.158 6.3686v-5.6343l-1.0599-.1218c-.0819-.45.2442-.777.6516-.8169l2.814-.1638z" fill="#f5f5f5" fill-rule="evenodd"/></g></svg>