<svg fill="none" height="41" viewBox="0 0 41 41" width="41" xmlns="http://www.w3.org/2000/svg" xmlns:xlink="http://www.w3.org/1999/xlink"><clipPath id="a"><path d="m12.5996 10.5h15.8v21.0667h-15.8z"/></clipPath><rect fill="#131117" height="40" rx="20" width="40" x=".5" y=".5"/><g clip-path="url(#a)"><path d="m16.5496 10.5c-.7283 0-1.3167.5884-1.3167 1.3167v3.95h2.6334v-3.95c0-.7283-.5884-1.3167-1.3167-1.3167zm7.9 0c-.7283 0-1.3167.5884-1.3167 1.3167v3.95h2.6334v-3.95c0-.7283-.5884-1.3167-1.3167-1.3167zm-10.5333 6.5833c-.7283 0-1.3167.5884-1.3167 1.3167s.5884 1.3167 1.3167 1.3167v1.3166c0 3.1847 2.263 5.8427 5.2666 6.4517v2.765c0 .7283.5884 1.3167 1.3167 1.3167s1.3167-.5884 1.3167-1.3167v-2.765c3.0036-.609 5.2666-3.267 5.2666-6.4517v-1.3166c.7283 0 1.3167-.5884 1.3167-1.3167s-.5884-1.3167-1.3167-1.3167z" fill="#f5f5f5"/></g></svg>