<svg width="57" height="57" viewBox="0 0 57 57" fill="none" xmlns="http://www.w3.org/2000/svg">
<path d="M10.5179 11.6514C9.72629 12.272 9.33049 12.5584 8.93469 12.8926C8.63783 13.1313 8.34098 13.4178 7.99465 13.6565C8.34098 13.9429 8.73678 14.5158 9.08311 14.5158C10.5674 14.5158 12.0517 14.5158 13.4865 14.1816C22.6395 12.1765 31.743 10.076 40.8961 8.02316C42.9246 7.5935 44.9531 7.21158 47.0311 7.02062C49.6533 6.78192 51.3849 8.64378 51.0386 11.1263C50.8407 12.5107 50.2965 12.9404 48.5153 12.8926C44.8541 12.8449 41.1929 13.4178 37.5812 13.9429C30.2588 15.0887 22.9363 16.5209 15.6139 17.6189C13.6844 17.9053 11.6064 17.5234 9.62734 17.2847C8.88521 17.1892 8.0936 16.7595 7.45041 16.3299C6.16404 15.3751 5.91665 14.0861 6.55984 12.7017C7.15355 11.2695 8.39044 11.0785 10.5179 11.6514Z" fill="#1B6D3A"/>
<path d="M30.5573 16.3774C30.5573 18.6689 30.5573 20.9604 30.5573 23.2519C30.6067 32.1316 30.6562 40.9634 30.7057 49.843C30.7057 51.0365 30.6562 52.0391 29.2214 52.4687C27.5392 52.9461 26.0055 52.7074 24.8181 51.4662C23.977 50.6069 23.7296 49.7475 24.2244 48.3631C25.016 46.2148 25.4118 43.8278 25.5602 41.5363C25.956 34.1366 26.2034 26.6892 26.4508 19.2895C26.5002 16.9026 27.7866 15.9478 30.5573 16.3774Z" fill="#1B6D3A"/>
</svg>
