<svg width="64" height="64" viewBox="0 0 64 64" fill="none" xmlns="http://www.w3.org/2000/svg">
<rect width="64" height="64" rx="2" fill="#2E3092"/>
<path d="M40.5116 18.9284L35.8026 32.542C35.5708 33.2621 35.2763 33.7222 34.9194 33.92C34.5599 34.1191 34.0369 34.2162 33.3465 34.213L28.6887 34.1911L34.5913 17.0992L38.3858 17.116C39.3631 17.1209 40.0078 17.2845 40.3221 17.6057C40.6333 17.9286 40.6965 18.3686 40.5116 18.9284ZM53.724 13.673C53.6134 13.0118 53.3083 12.4199 52.8078 11.8964C52.3057 11.3744 51.5839 10.951 50.6392 10.6251C49.6934 10.3009 48.5019 10.1349 47.0643 10.1285L27.7958 10.0391L24.032 10.0223L18.9923 10L26.6598 20.7808L20.9456 18.9766L9 53.6236L22.0258 53.6836L26.4463 40.7891C27.8398 40.9554 29.574 41.084 31.6508 41.1734C33.7269 41.2635 35.7762 41.1921 37.7994 40.9615C39.8206 40.7311 41.6523 40.2581 43.293 39.5445C44.9321 38.8319 46.0084 37.7159 46.5238 36.1963L53.5407 15.7442C53.7708 15.0246 53.8324 14.3339 53.724 13.673Z" fill="white"/>
</svg>
