<svg fill="none" height="41" viewBox="0 0 41 41" width="41" xmlns="http://www.w3.org/2000/svg"><rect fill="#131117" height="40" rx="20" width="40" x=".5" y=".5"/><path d="m20.626 12.3595 2.73 1.0342-2.8275 1.0864-2.8275-1.0864 2.73-1.0342c.0627-.0244.1323-.0244.1985 0zm-5.3903 1.5286v3.907c-.0453.0139-.0905.0278-.1358.0452l-3.3429 1.2675c-.7556.2856-1.257 1.0133-1.257 1.8212v4.1507c0 .773.4562 1.4729 1.1665 1.7863l3.3429 1.4695c.5014.2193 1.069.2193 1.5704 0l3.9487-1.7376 3.9522 1.7376c.5015.2193 1.069.2193 1.5705 0l3.3428-1.4695c.7069-.3099 1.1665-1.0133 1.1665-1.7863v-4.1507c0-.8113-.5014-1.5356-1.257-1.8246l-3.3429-1.2675c-.0452-.0174-.0905-.0314-.1358-.0453v-3.9035c0-.8113-.5014-1.5356-1.257-1.8246l-3.3429-1.2675c-.4457-.1671-.9367-.1671-1.3824 0l-3.3428 1.2675c-.7626.289-1.264 1.0168-1.264 1.8246zm8.9142 4.1124-2.8692 1.0864v-3.106l2.8692-1.1004zm-8.2596 1.4033 2.73 1.0342-2.8275 1.083-2.8275-1.083 2.73-1.0342c.0627-.0244.1323-.0244.1985 0zm.6547 7.1175v-3.4996l2.8692-1.1003v3.3394zm8.6217-7.1175c.0627-.0244.1323-.0244.1985 0l2.73 1.0342-2.831 1.083-2.8275-1.083zm3.5518 5.9301-2.7022 1.1874v-3.4996l2.8693-1.1003v3.1583c0 .1114-.0661.2089-.1671.2542z" fill="#fff"/></svg>