<svg fill="none" height="16" viewBox="0 0 16 16" width="16" xmlns="http://www.w3.org/2000/svg"><path d="m11.7947 7.41569c-.0689-.03303-.1389-.06482-.2099-.09526-.1235-2.27558-1.3669-3.57835-3.45472-3.59168-.00946-.00006-.01887-.00006-.02833-.00006-1.2488 0-2.28741.53305-2.92667 1.50304l1.14825.78767c.47755-.72454 1.22702-.879 1.77897-.879.00638 0 .01278 0 .01908.00006.68745.00438 1.2062.20426 1.54195.59404.24434.28378.40777.67592.48867 1.17082-.6095-.10359-1.26867-.13545-1.97333-.09505-1.98503.11435-3.26116 1.27206-3.17545 2.88073.04349.816.45001 1.518 1.14461 1.9766.58729.3877 1.34367.5772 2.12978.5343 1.03814-.0569 1.85259-.453 2.42069-1.1772.4315-.55.7045-1.26278.825-2.16087.4947.29859.8614.6915 1.0639 1.16387.3443.8029.3644 2.1223-.7122 3.198-.9432.9423-2.07708 1.35-3.79062 1.3626-1.90078-.0141-3.33831-.6237-4.27295-1.8119-.87522-1.1126-1.32754-2.7196-1.34441-4.7764.01687-2.05685.46919-3.66387 1.34441-4.77644.93464-1.18815 2.37215-1.79773 4.27292-1.81185 1.91457.01423 3.37715.62674 4.34755 1.82062.4759.58547.8346 1.32174 1.0711 2.1802l1.3456-.35901c-.2867-1.05667-.7378-1.96721-1.3516-2.72235-1.2441-1.530613-3.0636-2.3149077-5.40796-2.33117h-.00938c-2.33961.0162058-4.13873.803483-5.34738 2.33994-1.07554 1.36726-1.63033 3.2697-1.64897 5.65444l-.00006.00562.00006.00563c.01864 2.38467.57343 4.28717 1.64897 5.65447 1.20865 1.5364 3.00777 2.3237 5.34738 2.3399h.00938c2.08006-.0144 3.54626-.559 4.75406-1.7657 1.5802-1.5788 1.5326-3.5577 1.0118-4.77255-.3737-.87117-1.0861-1.57873-2.0602-2.04606zm-3.59141 3.37661c-.87.049-1.77384-.3415-1.81841-1.17797-.03303-.62016.44135-1.31216 1.8718-1.3946.16382-.00945.32457-.01406.48249-.01406.51958 0 1.00566.05047 1.44763.14708-.1649 2.05855-1.13172 2.39275-1.98351 2.43955z" fill="#fff" fill-opacity=".9"/></svg>