<svg fill="none" height="41" viewBox="0 0 41 41" width="41" xmlns="http://www.w3.org/2000/svg" xmlns:xlink="http://www.w3.org/1999/xlink"><filter id="a" color-interpolation-filters="sRGB" filterUnits="userSpaceOnUse" height="32.5" width="32.5" x="3.25" y="6.33333"><feFlood flood-opacity="0" result="BackgroundImageFix"/><feColorMatrix in="SourceAlpha" result="hardAlpha" type="matrix" values="0 0 0 0 0 0 0 0 0 0 0 0 0 0 0 0 0 0 127 0"/><feOffset dy="2.08333"/><feGaussianBlur stdDeviation="3.125"/><feColorMatrix type="matrix" values="0 0 0 0 0 0 0 0 0 0 0 0 0 0 0 0 0 0 0.15 0"/><feBlend in2="BackgroundImageFix" mode="normal" result="effect1_dropShadow_1993_71"/><feBlend in="SourceGraphic" in2="effect1_dropShadow_1993_71" mode="normal" result="shape"/></filter><filter id="b" color-interpolation-filters="sRGB" filterUnits="userSpaceOnUse" height="31.861" width="36.6784" x="1.15494" y="6.97232"><feFlood flood-opacity="0" result="BackgroundImageFix"/><feColorMatrix in="SourceAlpha" result="hardAlpha" type="matrix" values="0 0 0 0 0 0 0 0 0 0 0 0 0 0 0 0 0 0 127 0"/><feOffset/><feGaussianBlur stdDeviation="4.16667"/><feColorMatrix type="matrix" values="0 0 0 0 0 0 0 0 0 0 0 0 0 0 0 0 0 0 0.25 0"/><feBlend in2="BackgroundImageFix" mode="overlay" result="effect1_dropShadow_1993_71"/><feBlend in="SourceGraphic" in2="effect1_dropShadow_1993_71" mode="normal" result="shape"/></filter><filter id="c" color-interpolation-filters="sRGB" filterUnits="userSpaceOnUse" height="36.6667" width="22.9167" x="14.9167" y="2.16666"><feFlood flood-opacity="0" result="BackgroundImageFix"/><feColorMatrix in="SourceAlpha" result="hardAlpha" type="matrix" values="0 0 0 0 0 0 0 0 0 0 0 0 0 0 0 0 0 0 127 0"/><feOffset/><feGaussianBlur stdDeviation="4.16667"/><feColorMatrix type="matrix" values="0 0 0 0 0 0 0 0 0 0 0 0 0 0 0 0 0 0 0.25 0"/><feBlend in2="BackgroundImageFix" mode="overlay" result="effect1_dropShadow_1993_71"/><feBlend in="SourceGraphic" in2="effect1_dropShadow_1993_71" mode="normal" result="shape"/></filter><linearGradient id="d" gradientUnits="userSpaceOnUse" x1="19.4883" x2="19.4883" y1="10.5" y2="30.5002"><stop offset="0" stop-color="#fff"/><stop offset="1" stop-color="#fff" stop-opacity="0"/></linearGradient><clipPath id="e"><path d="m9.5 10.5h20v20h-20z"/></clipPath><mask id="f" height="21" maskUnits="userSpaceOnUse" width="21" x="9" y="10"><path d="m29.5 10.5h-20v20h20z" fill="#fff"/></mask><mask id="g" height="21" maskUnits="userSpaceOnUse" width="21" x="9" y="10"><path clip-rule="evenodd" d="m23.6824 30.4145c.315.1233.6742.1155.9921-.0383l4.1176-1.9916c.4327-.2092.7079-.6493.7079-1.1323v-13.5045c0-.4829-.2752-.923-.7079-1.1323l-4.1176-1.9917c-.4173-.2018-.9056-.1524-1.2718.1153-.0523.0382-.1021.0809-.1489.1279l-7.8828 7.2289-3.4336-2.6199c-.3196-.2439-.7667-.2239-1.0635.0476l-1.1013 1.0069c-.36312.332-.36352.9062-.00089 1.2388l2.97769 2.7307-2.97769 2.7307c-.36263.3326-.36223.9068.00089 1.2389l1.1013 1.0069c.2968.2714.7439.2915 1.0635.0475l3.4336-2.6198 7.8828 7.2288c.1247.1255.2711.2199.4286.2815zm.8206-14.4782-5.9812 4.5637 5.9812 4.5638z" fill="#fff" fill-rule="evenodd"/></mask><rect fill="#131117" height="40" rx="20" width="40" x=".5" y=".5"/><g clip-path="url(#e)"><g mask="url(#f)"><g filter="url(#a)"><g mask="url(#g)"><path d="m28.7928 12.6187-4.121-1.9944c-.477-.2309-1.047-.1335-1.4214.2428l-13.49025 12.3637c-.36285.3326-.36243.9068.0009 1.2388l1.10195 1.0069c.297.2715.7444.2914 1.0642.0476l16.2454-12.388c.545-.4156 1.3279-.0249 1.3279.6628v-.0481c0-.4827-.2752-.9227-.7077-1.1321z" fill="#d9d9d9"/><g filter="url(#b)"><path d="m28.7928 28.3814-4.121 1.9945c-.477.2309-1.047.1335-1.4214-.2429l-13.49025-12.3638c-.36285-.3325-.36243-.9067.0009-1.2388l1.10195-1.0069c.297-.2714.7444-.2914 1.0642-.0475l16.2454 12.388c.545.4157 1.3279.0249 1.3279-.6628v.0482c0 .4826-.2752.9226-.7077 1.132z" fill="#e6e6e6"/></g><g filter="url(#c)"><path d="m24.6716 30.3762c-.4772.2308-1.0472.1332-1.4216-.2432.4613.4636 1.25.1353 1.25-.5204v-18.2252c0-.6557-.7887-.9841-1.25-.5204.3744-.3763.9444-.4738 1.4216-.2432l4.1201 1.9917c.4329.2093.7083.6494.7083 1.1323v13.5045c0 .483-.2754.9229-.7083 1.1323z" fill="#fff"/></g><path clip-rule="evenodd" d="m23.6706 30.4145c.315.1233.6742.1155.9922-.0383l4.1177-1.9916c.4327-.2092.7077-.6493.7077-1.1323v-13.5045c0-.4828-.275-.923-.7077-1.1323l-4.1177-1.9917c-.4173-.2018-.9056-.1524-1.2718.1152-.0523.0383-.1022.081-.1489.128l-7.8828 7.2289-3.4336-2.6199c-.3196-.2439-.7667-.2239-1.0636.0476l-1.10122 1.0069c-.36311.332-.36352.9063-.0009 1.2388l2.97772 2.7307-2.97772 2.7307c-.36262.3326-.36221.9068.0009 1.2388l1.10122 1.007c.2969.2714.744.2913 1.0636.0475l3.4336-2.6198 7.8828 7.2288c.1247.1255.2711.2199.4285.2815zm.8207-14.4782-5.9812 4.5637 5.9812 4.5638z" fill="url(#d)" fill-rule="evenodd" opacity=".0625"/></g></g></g></g></svg>