<svg fill="none" height="630" viewBox="0 0 1200 630" width="1200" xmlns="http://www.w3.org/2000/svg"><path d="m0 0h1200v630h-1200z" fill="#131117"/><rect fill="#131117" height="630" rx="21" width="840" x="180"/><g fill="#f5f5f5"><path d="m832.05 152.845c-3.473 3.409-6.812 6.685-10.159 9.973-1.655-1.48-3.455-3.261-5.421-4.815-2.591-2.046-5.442-3.491-8.8-3.573-3.229-.078-5.813 1.179-7.549 4.018-4.28 6.979-8.453 14.027-12.692 21.033-5.698 9.415-11.289 18.904-17.157 28.197-8.112 12.844-19.896 18.217-34.247 18.03-8.375-.11-16.202-2.124-23.118-7.326-.988-.746-1.929-1.566-3.154-2.562v35.368c-4.995 0-9.782 0-14.728 0 0-37.066 0-74.179 0-111.421h14.639v10.149c1.159-.953 2.033-1.706 2.944-2.409 8.571-6.654 18.226-8.728 28.66-7.537 14.324 1.636 24.517 9.544 31.24 22.789.678 1.336.563 2.289-.233 3.515-3.295 5.084-6.479 10.243-9.611 15.222-.915-3.464-1.648-7.037-2.796-10.454-3.187-9.477-10.203-14.269-19.089-16.104-15.276-3.155-29.067 8.267-31 24.558-1.714 14.437 7.897 28.678 21.485 31.045 11.025 1.917 20.47-1.8 27.12-11.461 5.272-7.662 9.944-15.788 14.846-23.731 5.002-8.11 10.174-16.116 14.88-24.414 6.316-11.133 19.286-13.695 29.501-9.153 5.487 2.437 10.007 6.283 14.439 11.063z"/><path d="m780.376 213.874c.522-.645 8.801-12.719 9.186-13.192 2.158 2.16 4.08 4.366 6.272 6.213 3.572 3.011 7.667 4.472 12.247 3.155 3.736-1.073 6.594-3.463 7.483-7.563.911-4.198-.793-7.482-4.125-9.845-1.122-.796-3.11-2.12-4.291-2.815-1.314-.922-5.29-3.308-9.1-5.604-3.04-2.089-3.555-2.195-5.502-3.589 2.677-4.455 5.265-8.762 7.627-12.695 4.254 2.64 8.445 5.049 12.444 7.775 3.909 2.667 8.074 5.174 11.34 8.591 9.163 9.587 7.89 26.257-2.288 35.129-8.952 7.802-22.744 8.103-33.233.723-3.165-2.226-2.817-1.746-8.06-6.283z"/><path d="m287.174 537.725-3.087-27.618-3.087 27.618h-13.451l-5.071-28.996h7.938l3.913 27.618 2.977-27.618h13.561l2.977 27.618 3.914-27.618h7.938l-5.072 28.996zm33.748.496c-7.387 0-12.734-4.52-12.734-12.017v-5.954c0-7.497 5.347-12.017 12.734-12.017s12.679 4.52 12.679 12.017v5.789h-18.688v.496c0 4.024 2.481 5.622 6.009 5.622 2.977 0 5.347-1.267 5.623-3.472h6.946c-.662 6.008-5.733 9.536-12.569 9.536zm-6.009-17.585h11.963v-1.047c0-2.977-2.426-5.127-5.954-5.127s-6.009 1.875-6.009 5.127zm36.604 17.585c-2.866 0-5.126-.716-6.89-2.039v1.543h-6.891v-40.792h6.891v13.34c1.764-1.323 4.024-2.04 6.89-2.04 7.387 0 11.632 4.796 11.632 12.293v5.402c0 7.497-4.245 12.293-11.632 12.293zm-6.89-12.293c0 4.024 1.984 5.678 5.788 5.678 3.803 0 5.843-1.654 5.843-5.678v-5.402c0-3.473-2.04-5.678-5.843-5.678-3.804 0-5.788 2.205-5.788 5.678zm32.745 11.797v-28.996h6.891v1.489c1.213-.937 2.977-1.985 6.505-1.985 3.583 0 6.559 1.213 8.489 3.473 1.157-1.268 3.638-3.473 8.544-3.473 6.229 0 10.97 3.749 10.97 10.198v19.294h-6.891v-17.86c0-2.536-1.267-5.017-5.402-5.017-3.197 0-4.961 2.095-4.961 5.017v17.86h-6.891v-17.86c0-2.536-1.268-5.017-5.402-5.017-3.197 0-4.961 2.095-4.961 5.017v17.86zm56.604.496c-7.387 0-11.632-4.796-11.632-12.293v-5.402c0-7.497 4.245-12.293 11.632-12.293 2.866 0 5.126.717 6.89 2.04v-1.544h6.891v28.996h-6.891v-1.543c-1.764 1.323-4.024 2.039-6.89 2.039zm-4.741-12.293c0 4.024 2.04 5.678 5.843 5.678 3.804 0 5.788-1.654 5.788-5.678v-5.402c0-3.473-1.984-5.678-5.788-5.678-3.803 0-5.843 2.205-5.843 5.678zm22.161 11.797v-28.996h6.891v28.996zm-.055-34.563v-7.608h6.946v7.608zm11.083 34.563v-28.996h6.891v1.489c1.212-.937 3.252-1.985 6.78-1.985 6.229 0 11.025 3.749 11.025 10.198v19.294h-6.891v-17.86c0-2.536-1.378-5.017-5.512-5.017-3.308 0-5.402 2.095-5.402 5.017v17.86zm39.97 0c-5.016 0-8.709-3.197-8.709-8.434v-14.498h-4.245v-6.064h4.245v-5.457h6.89v5.457h6.946v6.064h-6.946v16.317h6.946v6.615zm20.731.496c-7.386 0-12.734-4.52-12.734-12.017v-5.954c0-7.497 5.348-12.017 12.734-12.017 7.387 0 12.679 4.52 12.679 12.017v5.789h-18.687v.496c0 4.024 2.48 5.622 6.008 5.622 2.977 0 5.347-1.267 5.623-3.472h6.946c-.662 6.008-5.733 9.536-12.569 9.536zm-6.008-17.585h11.962v-1.047c0-2.977-2.426-5.127-5.954-5.127s-6.008 1.875-6.008 5.127zm22.822 17.089v-28.996h6.891v1.489c1.213-.937 3.252-1.985 6.78-1.985 6.229 0 11.025 3.749 11.025 10.198v19.294h-6.89v-17.86c0-2.536-1.378-5.017-5.513-5.017-3.307 0-5.402 2.095-5.402 5.017v17.86zm39.916.496c-7.387 0-11.632-4.796-11.632-12.293v-5.402c0-7.497 4.245-12.293 11.632-12.293 2.866 0 5.126.717 6.89 2.04v-1.544h6.891v28.996h-6.891v-1.543c-1.764 1.323-4.024 2.039-6.89 2.039zm-4.741-12.293c0 4.024 2.039 5.678 5.843 5.678s5.788-1.654 5.788-5.678v-5.402c0-3.473-1.984-5.678-5.788-5.678s-5.843 2.205-5.843 5.678zm22.657 11.797v-28.996h6.891v1.489c1.212-.937 3.252-1.985 6.78-1.985 6.229 0 11.025 3.749 11.025 10.198v19.294h-6.891v-17.86c0-2.536-1.378-5.017-5.512-5.017-3.308 0-5.402 2.095-5.402 5.017v17.86zm41.018.496c-7.387 0-12.734-4.52-12.734-12.017v-5.954c0-7.497 5.347-12.017 12.734-12.017 7.552 0 12.237 4.079 12.623 10.86h-6.945c-.221-2.646-2.04-4.245-5.678-4.245-3.528 0-5.844 2.095-5.844 5.402v5.954c0 3.859 2.316 5.402 5.844 5.402 3.748 0 5.567-1.268 5.733-4.3h6.89c-.386 6.836-5.071 10.915-12.623 10.915zm28.943 0c-7.387 0-12.734-4.52-12.734-12.017v-5.954c0-7.497 5.347-12.017 12.734-12.017 7.386 0 12.678 4.52 12.678 12.017v5.789h-18.687v.496c0 4.024 2.481 5.622 6.009 5.622 2.976 0 5.347-1.267 5.622-3.472h6.946c-.661 6.008-5.733 9.536-12.568 9.536zm-6.009-17.585h11.962v-1.047c0-2.977-2.425-5.127-5.953-5.127s-6.009 1.875-6.009 5.127zm46.705 17.585c-2.867 0-5.127-.716-6.891-2.039v14.167h-6.89v-41.62h6.89v1.544c1.764-1.323 4.024-2.04 6.891-2.04 7.387 0 11.631 4.796 11.631 12.293v5.402c0 7.497-4.244 12.293-11.631 12.293zm-6.891-12.293c0 4.024 1.985 5.678 5.788 5.678 3.804 0 5.844-1.654 5.844-5.678v-5.402c0-3.473-2.04-5.678-5.844-5.678-3.803 0-5.788 2.205-5.788 5.678zm31.354 11.797c-5.016 0-8.709-3.197-8.709-8.434v-32.358h6.89v34.177h5.182v6.615zm16.671.496c-7.387 0-11.631-4.796-11.631-12.293v-5.402c0-7.497 4.244-12.293 11.631-12.293 2.866 0 5.127.717 6.891 2.04v-1.544h6.89v28.996h-6.89v-1.543c-1.764 1.323-4.025 2.039-6.891 2.039zm-4.741-12.293c0 4.024 2.04 5.678 5.843 5.678 3.804 0 5.789-1.654 5.789-5.678v-5.402c0-3.473-1.985-5.678-5.789-5.678-3.803 0-5.843 2.205-5.843 5.678zm22.657 11.797v-28.996h6.891v1.489c1.213-.937 3.252-1.985 6.78-1.985 6.23 0 11.025 3.749 11.025 10.198v19.294h-6.89v-17.86c0-2.536-1.378-5.017-5.513-5.017-3.307 0-5.402 2.095-5.402 5.017v17.86zm40.026.496c-6.836 0-12.183-3.583-12.293-10.308h6.891c.055 1.874 1.488 3.803 5.402 3.803 3.693 0 5.237-1.378 5.237-2.646 0-1.102-.551-2.094-2.812-2.425l-5.733-.772c-4.299-.551-7.827-3.362-7.827-8.544 0-4.906 4.52-9.096 11.466-9.096 7.056 0 11.576 4.3 11.576 9.647h-6.891c-.055-1.929-2.039-3.307-4.685-3.307-2.536 0-4.245 1.212-4.245 2.59 0 1.103.772 2.04 2.481 2.261l6.063.826c6.064.827 7.939 4.907 7.939 8.49 0 4.851-4.466 9.481-12.569 9.481z"/><path d="m264.021 479.075v-15.023h2.499v1.528c.794-1.117 2.117-1.793 4.145-1.793 1.97 0 3.528.794 4.469 2.146.882-1.146 2.264-2.146 4.91-2.146 3.322 0 5.645 2.234 5.645 5.674v9.614h-2.499v-9.055c0-2.529-1.147-3.881-3.528-3.881-1.999 0-3.528 1.088-3.528 3.881v9.055h-2.499v-9.055c0-2.529-1.147-3.881-3.528-3.881-1.999 0-3.587 1.088-3.587 3.881v9.055zm25.496-8.996c0-3.999 2.441-6.292 6.204-6.292s6.174 2.293 6.174 6.292v2.969c0 3.998-2.411 6.292-6.174 6.292s-6.204-2.294-6.204-6.292zm2.499 2.969c0 3.058 1.529 3.94 3.705 3.94 2.175 0 3.675-.882 3.675-3.94v-2.969c0-2.764-1.5-3.94-3.675-3.94-2.176 0-3.705 1.176-3.705 3.94zm14.009 6.027v-15.023h2.499v1.734c.735-1.088 1.823-1.734 3.822-1.734h1.5v2.499h-1.5c-2.264 0-3.822 1.264-3.822 4.38v8.144zm15.938.265c-3.764 0-6.204-2.294-6.204-6.292v-2.969c0-3.999 2.44-6.292 6.204-6.292 3.528 0 6.085 1.999 6.144 6.292v2.381h-9.849v.588c0 3.058 1.529 3.94 3.705 3.94 1.822 0 3.351-.647 3.616-2.646h2.499c-.265 3.175-2.793 4.998-6.115 4.998zm-3.705-9.085h7.35v-.176c-.059-2.999-1.676-3.999-3.645-3.999-2.176 0-3.705 1-3.705 3.999zm26.064 8.82c-2.97 0-3.999-1.676-3.999-3.734v-8.937h-2.205v-2.352h2.264v-3.352h2.44v3.352h3.675v2.352h-3.675v10.319h3.734v2.352zm6.205 0v-21.756h2.499v8.261c.911-1.205 2.264-1.793 4.292-1.793 3.323 0 5.586 2.234 5.586 5.674v9.614h-2.499v-9.055c0-2.529-1.264-3.881-3.645-3.881-1.999 0-3.734 1.088-3.734 3.881v9.055zm22.368.265c-3.763 0-6.174-2.294-6.174-6.292v-2.969c0-3.999 2.411-6.292 6.174-6.292 1.5 0 2.764.441 3.705 1.264v-.999h2.499v15.023h-2.499v-1c-.941.824-2.205 1.265-3.705 1.265zm-3.675-6.292c0 3.058 1.5 3.94 3.675 3.94 2.029 0 3.705-.882 3.705-3.94v-2.969c0-2.764-1.676-3.94-3.705-3.94-2.175 0-3.675 1.176-3.675 3.94zm14.87 6.027v-15.023h2.499v1.528c.794-1.117 2.235-1.793 4.234-1.793 3.322 0 5.527 2.234 5.527 5.674v9.614h-2.499v-9.055c0-2.529-1.205-3.881-3.587-3.881-1.999 0-3.675 1.088-3.675 3.881v9.055zm22.282 6.703v-2.352h2.764v-19.374h2.499v18.11c0 2.205-.941 3.616-3.616 3.616zm2.617-24.843v-2.881h2.763v2.881zm17.065 12.172v-9.055h2.499v9.613c0 3.44-2.117 5.675-6.027 5.675-3.94 0-6.057-2.235-6.057-5.675v-9.613h2.499v9.055c0 2.528 1.117 3.881 3.558 3.881 2.41 0 3.528-1.353 3.528-3.881zm12.474 6.233c-3.558 0-6.057-1.735-6.145-5.234h2.47c0 2 1.528 2.882 3.675 2.882 2.175 0 3.439-.912 3.439-2.176 0-.911-.646-1.558-1.999-1.911l-3.528-.882c-2.146-.529-3.44-1.852-3.44-3.998 0-2.382 1.941-4.234 5.381-4.234 3.41 0 5.733 1.999 5.733 4.851h-2.411c-.088-1.764-1.441-2.587-3.322-2.587-2 0-2.999.882-2.999 1.97 0 1.117.852 1.499 1.911 1.764l3.204.793c2.558.647 3.969 1.941 3.969 4.234 0 2.587-2.205 4.528-5.938 4.528zm14.78-.265c-2.969 0-3.998-1.676-3.998-3.734v-8.937h-2.205v-2.352h2.264v-3.352h2.44v3.352h3.675v2.352h-3.675v10.319h3.734v2.352zm19.788.265c-1.5 0-2.764-.441-3.705-1.265v1h-2.499v-21.756h2.499v7.732c.941-.823 2.205-1.264 3.705-1.264 3.763 0 6.174 2.293 6.174 6.292v2.969c0 3.998-2.411 6.292-6.174 6.292zm-3.705-6.292c0 3.058 1.676 3.94 3.705 3.94 2.175 0 3.675-.882 3.675-3.94v-2.969c0-2.764-1.5-3.94-3.675-3.94-2.029 0-3.705 1.176-3.705 3.94zm18.98 6.292c-3.764 0-6.174-2.294-6.174-6.292v-2.969c0-3.999 2.41-6.292 6.174-6.292 1.499 0 2.763.441 3.704 1.264v-.999h2.499v15.023h-2.499v-1c-.941.824-2.205 1.265-3.704 1.265zm-3.675-6.292c0 3.058 1.499 3.94 3.675 3.94 2.028 0 3.704-.882 3.704-3.94v-2.969c0-2.764-1.676-3.94-3.704-3.94-2.176 0-3.675 1.176-3.675 3.94zm19.897 6.292c-3.763 0-6.203-2.294-6.203-6.292v-2.969c0-3.999 2.44-6.292 6.203-6.292 3.528 0 6.086 1.999 6.145 5.557h-2.499c-.059-2.235-1.676-3.205-3.646-3.205-2.176 0-3.704 1.176-3.704 3.94v2.969c0 3.058 1.528 3.94 3.704 3.94 1.97 0 3.587-.735 3.646-3.146h2.499c-.059 3.498-2.646 5.498-6.145 5.498zm21.977-14.994-8.526 6.615 8.703 7.82v.294h-3.234l-6.204-5.557v5.557h-2.469v-21.756h2.469v11.29l5.792-4.557h3.469zm12.404 8.761v-9.055h2.499v9.613c0 3.44-2.117 5.675-6.027 5.675-3.94 0-6.057-2.235-6.057-5.675v-9.613h2.499v9.055c0 2.528 1.118 3.881 3.558 3.881 2.411 0 3.528-1.353 3.528-3.881zm13.709 6.233c-1.5 0-2.764-.441-3.705-1.265v7.733h-2.499v-21.756h2.499v.999c.941-.823 2.205-1.264 3.705-1.264 3.763 0 6.174 2.293 6.174 6.292v2.969c0 3.998-2.411 6.292-6.174 6.292zm-3.705-6.292c0 2.47 1.676 3.94 3.705 3.94 2.175 0 3.675-1.47 3.675-3.94v-2.969c0-2.764-1.5-3.94-3.675-3.94-2.029 0-3.705 1.176-3.705 3.94zm18.95 6.292c-3.558 0-6.057-1.735-6.145-5.234h2.47c0 2 1.529 2.882 3.675 2.882 2.175 0 3.44-.912 3.44-2.176 0-.911-.647-1.558-2-1.911l-3.528-.882c-2.146-.529-3.439-1.852-3.439-3.998 0-2.382 1.94-4.234 5.38-4.234 3.41 0 5.733 1.999 5.733 4.851h-2.411c-.088-1.764-1.441-2.587-3.322-2.587-1.999 0-2.999.882-2.999 1.97 0 1.117.853 1.499 1.911 1.764l3.205.793c2.557.647 3.969 1.941 3.969 4.234 0 2.587-2.205 4.528-5.939 4.528zm9.312-.265v-3.234h3.175v3.234z"/></g></svg>