<svg fill="none" height="41" viewBox="0 0 41 41" width="41" xmlns="http://www.w3.org/2000/svg"><rect fill="#131117" height="40" rx="20" width="40" x=".5" y=".5"/><path d="m25.3348 17.6328s-1.6216 5.0865-1.7537 5.5064c-.0481-.4319-1.2373-9.5613-1.2373-9.5613-2.7627 0-4.2402 1.9674-5.021 4.0429 0 0-1.9699 5.0985-2.1381 5.5304-.012-.3959-.3003-5.4705-.3003-5.4705-.1682-2.5433-2.4985-4.0908-4.3844-4.0908l2.2823 13.8321c2.8949-.012 4.4564-1.9674 5.2733-4.0428 0 0 1.7417-4.4988 1.8138-4.7027.012.1919 1.2492 8.7455 1.2492 8.7455 2.9069 0 4.4685-1.8354 5.3093-3.8389l4.0721-9.9932c-2.8709 0-4.3844 1.9554-5.1652 4.0429z" fill="#f5f5f5"/></svg>