<svg fill="none" height="41" viewBox="0 0 41 41" width="41" xmlns="http://www.w3.org/2000/svg" xmlns:xlink="http://www.w3.org/1999/xlink"><clipPath id="a"><path d="m9 9h23v23h-23z"/></clipPath><rect fill="#131117" height="40" rx="20" width="40" x=".5" y=".5"/><g clip-path="url(#a)"><path d="m11.7717 16.6098 4.5595 12.4882c-3.1894-1.5453-5.3861-4.8156-5.3861-8.598 0-1.3881.2965-2.6998.8266-3.8902zm15.1791 3.4095c0-1.1814-.4223-1.999-.7862-2.6369-.4851-.7861-.9388-1.4554-.9388-2.2416 0-.8804.6648-1.698 1.6037-1.698.0404 0 .0809.0045.1258.009-1.7026-1.5588-3.9666-2.5112-6.4553-2.5112-3.3377 0-6.2756 1.7115-7.9871 4.308.2246.009.4357.0135.6154.0135.9973 0 2.5471-.1213 2.5471-.1213.5166-.0314.575.7278.0629.7862 0 0-.5166.0584-1.0916.0898l3.4814 10.35 2.0934-6.2711-1.4869-4.0789c-.5166-.0314-1.0018-.0898-1.0018-.0898-.5166-.0315-.4537-.8176.0584-.7862 0 0 1.5768.1213 2.5156.1213.9973 0 2.5471-.1213 2.5471-.1213.5166-.0314.575.7278.0629.7862 0 0-.5166.0584-1.0916.0898l3.4545 10.2736.9523-3.1849c.4043-1.3207.7188-2.2686.7188-3.0862zm-6.2846 1.3162-2.866 8.3331c.858.2515 1.7609.3908 2.6998.3908 1.1141 0 2.1787-.1932 3.1715-.5436-.027-.0404-.0494-.0853-.0674-.1303zm8.2207-5.422c.0404.3054.0629.6289.0629.9838 0 .9703-.1797 2.0574-.7277 3.423l-2.92 8.4408c2.8436-1.6576 4.7528-4.7347 4.7528-8.2611 0-1.6621-.4223-3.2254-1.168-4.5865zm2.7537 4.5865c0 6.1453-4.9998 11.1406-11.1406 11.1406-6.1453 0-11.14062-4.9998-11.14062-11.1406 0-6.1453 4.99532-11.14062 11.14062-11.14062 6.1408 0 11.1406 4.99532 11.1406 11.14062zm-.5121 0c0-5.8623-4.7707-10.62852-10.6285-10.62852-5.8623 0-10.62852 4.76622-10.62852 10.62852s4.77072 10.6285 10.62852 10.6285c5.8623 0 10.6285-4.7662 10.6285-10.6285z" fill="#f5f5f5"/></g></svg>